<?xml version='1.0' encoding='utf-8'?>
<svg xmlns="http://www.w3.org/2000/svg" viewBox="0 0 321.119 321.119" height="1213.679" width="1213.679"><path fill="transparent" paint-order="stroke markers fill" d="M0 0h321.119v321.119H0z"/><path d="M178.726 225.383l9.165 26.458 105.403-60.854-18.331-10.584-87.072 50.271-9.165-5.291m105.402-60.855l-15.925 13.23-80.312 52.916-9.165-5.291zM36.662 143.362l-9.166-5.292c125.202-73.301 142.772-71.846 9.166 5.292zm247.466 21.12l-105.402 60.853-142.064-82.02c107.457-82.411 247.416 21.184 247.466 21.166zM45.953 148.725l-9.291-5.364v21.166l-9.166-5.291zm132.773 76.657l9.165 26.458-151.23-87.313v-21.166z" opacity=".25"/><g transform="translate(352.87 140.716)"><path fill="#d3c9af" paint-order="stroke markers fill" d="M-178.726 30.163l9.165 5.291-9.165 5.292-9.165-5.292z"/><rect width="3.175" height="1.236" x="-69.321" y="133.615" ry=".302" rx=".302" transform="scale(1.22474 .7071) rotate(45)" fill="#8d8889" paint-order="stroke markers fill"/><path d="M-187.891 35.454v4.233l9.165 5.292v-4.233zM-169.56 35.454v4.233l-9.166 5.292v-4.233z" fill="#8d8889"/></g><path fill="#e6e7e2" paint-order="stroke markers fill" d="M142.065 66.585l142.064 82.021-105.402 60.854L36.662 127.44z"/><path d="M178.726 209.508l.047 21.194-142.111-82.049v-21.166z" fill="#bbbdbe"/><path d="M27.496 122.195l9.166 5.292v21.166l-9.166-5.291z" fill="#70694d"/><path fill="#54657d" paint-order="stroke markers fill" d="M77.906 135.424l105.402 60.854-4.583 2.646L73.323 138.07z"/><path fill="#d3c9af" paint-order="stroke markers fill" d="M187.891 183.05l9.165 5.29-9.165 5.292-9.165-5.291zM160.395 167.174l9.165 5.292-9.165 5.291-9.165-5.291z"/><rect width="3.175" height="1.236" x="263.482" y="74.835" ry=".302" rx=".302" transform="scale(1.22474 .7071) rotate(45)" fill="#8d8889" paint-order="stroke markers fill"/><path fill="#d3c9af" paint-order="stroke markers fill" d="M146.647 159.237l9.165 5.291-9.165 5.292-9.165-5.292z"/><rect width="3.175" height="1.236" x="247.607" y="74.835" ry=".302" rx=".302" transform="scale(1.22474 .7071) rotate(45)" fill="#8d8889" paint-order="stroke markers fill"/><path fill="#d3c9af" paint-order="stroke markers fill" d="M132.899 151.3l9.165 5.29-9.165 5.292-9.166-5.291z"/><rect width="3.175" height="1.236" x="231.732" y="74.835" ry=".302" rx=".302" transform="scale(1.22474 .7071) rotate(45)" fill="#8d8889" paint-order="stroke markers fill"/><path fill="#d3c9af" paint-order="stroke markers fill" d="M119.15 143.362l9.166 5.291-9.166 5.292-9.165-5.292z"/><rect width="3.175" height="1.236" x="215.857" y="74.835" ry=".302" rx=".302" transform="scale(1.22474 .7071) rotate(45)" fill="#8d8889" paint-order="stroke markers fill"/><path fill="#d3c9af" paint-order="stroke markers fill" d="M105.402 135.424l9.165 5.292-9.165 5.291-9.165-5.291z"/><rect width="3.175" height="1.236" x="199.982" y="74.835" ry=".302" rx=".302" transform="scale(1.22474 .7071) rotate(45)" fill="#8d8889" paint-order="stroke markers fill"/><path fill="#d3c9af" paint-order="stroke markers fill" d="M91.654 127.487l9.165 5.291-9.165 5.292-9.165-5.292z"/><rect width="3.175" height="1.236" x="184.107" y="74.835" ry=".302" rx=".302" transform="scale(1.22474 .7071) rotate(45)" fill="#8d8889" paint-order="stroke markers fill"/><path fill="#54657d" paint-order="stroke markers fill" d="M109.985 116.903l105.402 60.854-13.748 7.938L96.237 124.84z"/><rect width="3.175" height="1.236" x="274.066" y="37.793" ry=".302" rx=".302" transform="scale(1.22474 .7071) rotate(45)" fill="#8d8889" paint-order="stroke markers fill"/><path fill="#d0c3a5" paint-order="stroke markers fill" d="M77.906 124.841l4.583 2.646-4.583 2.646-4.583-2.646zM68.74 119.55l4.584 2.646-4.583 2.646-4.583-2.646zM77.907 114.258l4.583 2.646-4.583 2.646-4.583-2.646zM87.072 108.966l4.583 2.646-4.583 2.646-4.583-2.646zM96.237 114.258l4.583 2.646-4.583 2.646-4.583-2.646zM87.072 119.549l4.583 2.646-4.583 2.646-4.583-2.646z"/><path fill="#fc6b07" paint-order="stroke markers fill" d="M68.74 130.133l4.584 2.646-4.583 2.646-4.583-2.646z"/><path fill="#fefee3" paint-order="stroke markers fill" d="M123.733 108.966l9.166 5.291-9.166 5.292-9.165-5.292zM109.985 101.028l9.165 5.292-9.165 5.291-9.165-5.291z"/><path fill="#9d0108" paint-order="stroke markers fill" d="M137.482 116.903l18.33 10.584-9.164 5.291-18.332-10.583z"/><path fill="#fc6b07" paint-order="stroke markers fill" d="M174.143 143.362l18.331 10.583-4.583 2.646-18.331-10.583z"/><path fill="#bba090" paint-order="stroke markers fill" d="M178.726 140.716l18.331 10.583-4.583 2.646-18.331-10.583z"/><path fill="#54657d" paint-order="stroke markers fill" d="M137.482 74.57L270.38 151.3l-4.583 2.645-132.898-76.729z"/><path fill="#9e9872" paint-order="stroke markers fill" d="M132.899 61.341l9.165 5.292L36.66 127.487l-9.165-5.292zM284.128 148.654l9.165 5.291L187.891 214.8l-9.165-5.291z"/><path fill="#d3c9af" paint-order="stroke markers fill" d="M187.891 178.816l9.165 5.292-9.165 5.291-9.165-5.291z"/><rect width="3.175" height="1.236" x="290.999" y="70.601" ry=".302" rx=".302" transform="scale(1.22474 .7071) rotate(45)" fill="#8d8889" paint-order="stroke markers fill"/><path d="M178.726 184.108v4.233l9.165 5.292v-4.234zM197.057 184.108v4.233l-9.166 5.292v-4.234z" fill="#8d8889"/><g transform="translate(352.87 140.716)"><path fill="#d3c9af" paint-order="stroke markers fill" d="M-178.726 30.163l9.165 5.291-9.165 5.292-9.165-5.292z"/><rect width="3.175" height="1.236" x="-69.321" y="133.615" ry=".302" rx=".302" transform="scale(1.22474 .7071) rotate(45)" fill="#8d8889" paint-order="stroke markers fill"/><path d="M-187.891 35.454v4.233l9.165 5.292v-4.233zM-169.56 35.454v4.233l-9.166 5.292v-4.233z" fill="#8d8889"/></g><g transform="translate(339.121 132.778)"><path fill="#d3c9af" paint-order="stroke markers fill" d="M-178.726 30.163l9.165 5.291-9.165 5.292-9.165-5.292z"/><rect width="3.175" height="1.236" x="-69.321" y="133.615" ry=".302" rx=".302" transform="scale(1.22474 .7071) rotate(45)" fill="#8d8889" paint-order="stroke markers fill"/><path d="M-187.891 35.454v4.233l9.165 5.292v-4.233zM-169.56 35.454v4.233l-9.166 5.292v-4.233z" fill="#8d8889"/></g><g transform="translate(325.373 124.84)"><path fill="#d3c9af" paint-order="stroke markers fill" d="M-178.726 30.163l9.165 5.291-9.165 5.292-9.165-5.292z"/><rect width="3.175" height="1.236" x="-69.321" y="133.615" ry=".302" rx=".302" transform="scale(1.22474 .7071) rotate(45)" fill="#8d8889" paint-order="stroke markers fill"/><path d="M-187.891 35.454v4.233l9.165 5.292v-4.233zM-169.56 35.454v4.233l-9.166 5.292v-4.233z" fill="#8d8889"/></g><g transform="translate(311.625 116.903)"><path fill="#d3c9af" paint-order="stroke markers fill" d="M-178.726 30.163l9.165 5.291-9.165 5.292-9.165-5.292z"/><rect width="3.175" height="1.236" x="-69.321" y="133.615" ry=".302" rx=".302" transform="scale(1.22474 .7071) rotate(45)" fill="#8d8889" paint-order="stroke markers fill"/><path d="M-187.891 35.454v4.233l9.165 5.292v-4.233zM-169.56 35.454v4.233l-9.166 5.292v-4.233z" fill="#8d8889"/></g><g transform="translate(297.877 108.966)"><path fill="#d3c9af" paint-order="stroke markers fill" d="M-178.726 30.163l9.165 5.291-9.165 5.292-9.165-5.292z"/><rect width="3.175" height="1.236" x="-69.321" y="133.615" ry=".302" rx=".302" transform="scale(1.22474 .7071) rotate(45)" fill="#8d8889" paint-order="stroke markers fill"/><path d="M-187.891 35.454v4.233l9.165 5.292v-4.233zM-169.56 35.454v4.233l-9.166 5.292v-4.233z" fill="#8d8889"/></g><g transform="translate(284.129 101.028)"><path fill="#d3c9af" paint-order="stroke markers fill" d="M-178.726 30.163l9.165 5.291-9.165 5.292-9.165-5.292z"/><rect width="3.175" height="1.236" x="-69.321" y="133.615" ry=".302" rx=".302" transform="scale(1.22474 .7071) rotate(45)" fill="#8d8889" paint-order="stroke markers fill"/><path d="M-187.891 35.454v4.233l9.165 5.292v-4.233zM-169.56 35.454v4.233l-9.166 5.292v-4.233z" fill="#8d8889"/></g><g transform="translate(270.38 93.09)"><path fill="#d3c9af" paint-order="stroke markers fill" d="M-178.726 30.163l9.165 5.291-9.165 5.292-9.165-5.292z"/><rect width="3.175" height="1.236" x="-69.321" y="133.615" ry=".302" rx=".302" transform="scale(1.22474 .7071) rotate(45)" fill="#8d8889" paint-order="stroke markers fill"/><path d="M-187.891 35.454v4.233l9.165 5.292v-4.233zM-169.56 35.454v4.233l-9.166 5.292v-4.233z" fill="#8d8889"/></g><g transform="translate(352.87 140.716)"><path fill="#d3c9af" paint-order="stroke markers fill" d="M-178.726 30.163l9.165 5.291-9.165 5.292-9.165-5.292z"/><rect width="3.175" height="1.236" x="-69.321" y="133.615" ry=".302" rx=".302" transform="scale(1.22474 .7071) rotate(45)" fill="#8d8889" paint-order="stroke markers fill"/><path d="M-187.891 35.454v4.233l9.165 5.292v-4.233zM-169.56 35.454v4.233l-9.166 5.292v-4.233z" fill="#8d8889"/></g><g transform="translate(383.108 121.18)"><path fill="#d3c9af" paint-order="stroke markers fill" d="M-178.726 30.163l9.165 5.291-9.165 5.292-9.165-5.292z"/><rect width="3.175" height="1.236" x="-69.321" y="133.615" ry=".302" rx=".302" transform="scale(1.22474 .7071) rotate(45)" fill="#8d8889" paint-order="stroke markers fill"/><path d="M-187.891 35.454v4.233l9.165 5.292v-4.233zM-169.56 35.454v4.233l-9.166 5.292v-4.233z" fill="#8d8889"/></g><path fill="#d0c3a5" paint-order="stroke markers fill" d="M77.906 122.724l4.583 2.646-4.583 2.646-4.583-2.646z"/><path style="font-variation-settings:normal" d="M73.323 125.37v2.117l4.583 2.646v-2.117z" fill="#8d878e"/><path d="M77.906 128.016l4.583-2.646v2.117l-4.583 2.646z" fill="#8d878e"/><path fill="#d0c3a5" paint-order="stroke markers fill" d="M87.072 117.432l4.583 2.646-4.583 2.646-4.583-2.646z"/><path style="font-variation-settings:normal" d="M82.489 120.078v2.117l4.583 2.646v-2.117z" fill="#8d878e"/><path d="M87.072 122.724l4.582-2.646v2.117l-4.582 2.646z" fill="#8d878e"/><path fill="#d0c3a5" paint-order="stroke markers fill" d="M68.74 117.432l4.584 2.646-4.583 2.646-4.583-2.646z"/><path style="font-variation-settings:normal" d="M64.158 120.078v2.117l4.583 2.646v-2.117z" fill="#8d878e"/><path d="M68.74 122.724l4.583-2.646v2.117l-4.582 2.646z" fill="#8d878e"/><path fill="#d0c3a5" paint-order="stroke markers fill" d="M77.906 112.14l4.583 2.647-4.583 2.646-4.583-2.646z"/><path style="font-variation-settings:normal" d="M73.323 114.787v2.116l4.583 2.646v-2.116z" fill="#8d878e"/><path d="M77.906 117.433l4.583-2.646v2.116l-4.583 2.646z" fill="#8d878e"/><path fill="#d0c3a5" paint-order="stroke markers fill" d="M87.072 106.849l4.583 2.646-4.583 2.646-4.583-2.646z"/><path style="font-variation-settings:normal" d="M82.489 109.495v2.117l4.583 2.646v-2.117z" fill="#8d878e"/><path d="M87.072 112.14l4.582-2.645v2.117l-4.582 2.646z" fill="#8d878e"/><path fill="#d0c3a5" paint-order="stroke markers fill" d="M96.237 112.14l4.583 2.647-4.583 2.646-4.583-2.646z"/><path style="font-variation-settings:normal" d="M91.654 114.787v2.116l4.583 2.646v-2.116z" fill="#8d878e"/><path d="M96.237 117.433l4.583-2.646v2.116l-4.583 2.646z" fill="#8d878e"/><path fill="#fefee3" paint-order="stroke markers fill" d="M109.982 96.797l9.165 5.291-9.165 5.292-9.165-5.292z"/><path style="font-variation-settings:normal" d="M100.82 102.087l9.162 5.29v4.235l-9.162-5.292z" fill="#d2c78d"/><path d="M109.985 107.378l9.166-5.291v4.233l-9.166 5.292z" fill="#d2c78d"/><path fill="#fefee3" paint-order="stroke markers fill" d="M123.734 104.732l9.165 5.292-9.165 5.291-9.165-5.291z"/><path style="font-variation-settings:normal" d="M114.571 110.022l9.162 5.29v4.235l-9.162-5.291z" fill="#d2c78d"/><path d="M123.737 115.314l9.165-5.292v4.234l-9.165 5.291z" fill="#d2c78d"/><g color="#000" font-weight="400" font-family="sans-serif" paint-order="stroke markers fill"><path style="line-height:normal;font-variant-ligatures:normal;font-variant-position:normal;font-variant-caps:normal;font-variant-numeric:normal;font-variant-alternates:normal;font-variant-east-asian:normal;font-feature-settings:normal;font-variation-settings:normal;text-indent:0;text-align:start;text-decoration-line:none;text-decoration-style:solid;text-decoration-color:#000;text-transform:none;text-orientation:mixed;white-space:normal;shape-padding:0;shape-margin:0;inline-size:0;isolation:auto;mix-blend-mode:normal;solid-color:#000;solid-opacity:1" d="M162.686 125.843c-2.488 0-4.976.548-6.874 1.644-1.927 1.112-2.874 2.575-2.845 4.033V136.683c-.029 1.457.918 2.92 2.844 4.032h.001c3.796 2.193 9.952 2.193 13.748 0 1.926-1.111 2.874-2.574 2.845-4.032v-.13-.128-.13-.129-.128-.13-.129-.128-.13-.129-.129-.13-.128-.135-.123-.13-.128-.13-.129-.129-.129-.129-.129-.129-.129-.129-.129-.13-.128-.13-.128-.13-.129-.128-.13-.129-.129-.13-.128-.129c.029-1.458-.919-2.92-2.845-4.033-1.898-1.096-4.386-1.644-6.874-1.644z" overflow="visible" fill="#222937"/><path style="line-height:normal;font-variant-ligatures:normal;font-variant-position:normal;font-variant-caps:normal;font-variant-numeric:normal;font-variant-alternates:normal;font-variant-east-asian:normal;font-feature-settings:normal;font-variation-settings:normal;text-indent:0;text-align:start;text-decoration-line:none;text-decoration-style:solid;text-decoration-color:#000;text-transform:none;text-orientation:mixed;white-space:normal;shape-padding:0;shape-margin:0;inline-size:0;isolation:auto;mix-blend-mode:normal;solid-color:#000;solid-opacity:1" d="M169.56 135.424c-3.796 2.192-9.951 2.192-13.748 0-3.796-2.192-3.796-5.745 0-7.937 3.797-2.192 9.952-2.192 13.748 0 3.797 2.192 3.797 5.745 0 7.937z" overflow="visible" fill="#37425a"/></g><g color="#000" font-weight="400" font-family="sans-serif" paint-order="stroke markers fill"><path style="line-height:normal;font-variant-ligatures:normal;font-variant-position:normal;font-variant-caps:normal;font-variant-numeric:normal;font-variant-alternates:normal;font-variant-east-asian:normal;font-feature-settings:normal;font-variation-settings:normal;text-indent:0;text-align:start;text-decoration-line:none;text-decoration-style:solid;text-decoration-color:#000;text-transform:none;text-orientation:mixed;white-space:normal;shape-padding:0;shape-margin:0;inline-size:0;isolation:auto;mix-blend-mode:normal;solid-color:#000;solid-opacity:1" d="M217.693 157.631c-2.488 0-4.976.548-6.874 1.644-1.927 1.112-2.874 2.575-2.845 4.033v5.163c-.029 1.457.918 2.92 2.844 4.032l.001.001c3.796 2.192 9.952 2.192 13.748 0 1.927-1.112 2.874-2.575 2.845-4.033v-.13-.128-.13-.129-.128-.13-.129-.128-.13-.129-.129-.13-.128-.135-.123-.13-.128-.13-.128-.13-.129-.128-.13-.129-.129-.129-.129-.13-.128-.13-.128-.13-.129-.128-.13-.129-.129-.129-.129-.129c.029-1.458-.918-2.92-2.845-4.033-1.898-1.096-4.386-1.644-6.874-1.644z" overflow="visible" fill="#222937"/><path style="line-height:normal;font-variant-ligatures:normal;font-variant-position:normal;font-variant-caps:normal;font-variant-numeric:normal;font-variant-alternates:normal;font-variant-east-asian:normal;font-feature-settings:normal;font-variation-settings:normal;text-indent:0;text-align:start;text-decoration-line:none;text-decoration-style:solid;text-decoration-color:#000;text-transform:none;text-orientation:mixed;white-space:normal;shape-padding:0;shape-margin:0;inline-size:0;isolation:auto;mix-blend-mode:normal;solid-color:#000;solid-opacity:1" d="M224.568 167.212c-3.797 2.192-9.952 2.192-13.749 0-3.796-2.192-3.796-5.745 0-7.937 3.797-2.192 9.952-2.192 13.749 0 3.796 2.192 3.796 5.745 0 7.937z" overflow="visible" fill="#37425a"/></g><g paint-order="stroke markers fill"><path d="M247.467 145.847c-1.244 0-2.488.274-3.437.821-.912.527-1.423 1.24-1.424 1.985 0 .022.005.043.005.064 0 .022-.005.043-.005.065 0 .022.005.043.005.065 0 .021-.005.042-.005.064s.005.043.005.065c0 .021-.005.042-.005.064s.004.043.005.065c0 .021-.005.043-.005.064 0 .022.004.044.005.065 0 .022-.005.043-.005.064 0 .022.005.043.005.065 0 .021-.005.043-.005.064 0 .022.004.043.005.065 0 .021-.005.043-.005.064 0 .022.005.043.005.065 0 .021-.005.043-.005.064 0 .022.005.043.005.065 0 .022-.005.043-.005.065 0 .022.005.043.005.064 0 .022-.005.043-.005.065 0 .022.005.043.005.064 0 .022-.005.043-.005.065 0 .022.004.043.005.065 0 .021-.005.042-.005.064s.004.043.005.065c0 .021-.005.042-.005.064s.005.043.005.064c0 .022-.005.043-.005.065 0 .022.004.043.005.065 0 .021-.005.043-.005.064 0 .022.004.043.005.065 0 .021-.005.042-.005.064s.004.043.005.065c0 .021-.005.043-.005.064 0 .022.005.043.005.065 0 .021-.005.043-.005.064 0 .022.005.043.005.065 0 .021-.005.043-.005.064 0 .022.004.043.005.065 0 .022-.005.043-.005.065 0 .021.004.043.005.064 0 .022-.005.043-.005.064 0 .022.005.043.005.065 0 .022-.005.043-.005.065 0 .022.005.043.005.064 0 .022-.005.043-.005.065 0 .021.004.043.005.064 0 .022-.005.043-.005.065 0 .022.004.043.005.065 0 .021-.005.042-.005.064s.005.043.005.064c0 .022-.005.043-.005.065 0 .022.005.043.005.064 0 .022-.005.043-.005.065 0 .022.004.043.005.065 0 .021-.005.043-.005.064 0 .022.004.043.005.065 0 .021-.005.043-.005.064 0 .022.004.043.005.065 0 .021-.005.043-.005.064 0 .022.005.043.005.065 0 .021-.005.043-.005.064 0 .022.004.043.005.065 0 .021-.005.043-.005.064 0 .022.004.043.005.065 0 .022-.005.043-.005.065 0 .021.004.043.005.064 0 .022-.005.043-.005.065 0 .021.005.042.005.064s-.005.043-.005.065c0 .021.004.043.005.064 0 .022-.005.043-.005.065 0 .021.004.043.005.064 0 .022-.005.043-.005.065 0 .022.004.043.005.064 0 .022-.005.043-.005.065 0 .022.004.043.005.065 0 .021-.005.042-.005.064 0 .021.004.043.005.064 0 .022-.005.043-.005.065 0 .022.004.043.005.065 0 .021-.005.042-.005.064 0 .744.511 1.458 1.423 1.985 1.898 1.095 4.976 1.095 6.874 0 .911-.527 1.424-1.24 1.425-1.984v-.001c0-.022-.005-.043-.006-.065 0-.021.006-.042.006-.064s-.005-.044-.006-.065c0-.022.006-.043.006-.064 0-.022-.005-.043-.006-.065 0-.021.006-.042.006-.064s-.005-.044-.006-.065c0-.022.006-.043.006-.064 0-.022-.005-.044-.006-.065 0-.022.006-.043.006-.064 0-.022-.005-.044-.006-.066 0-.02.006-.042.006-.063 0-.022-.005-.044-.006-.065 0-.022.006-.043.006-.064 0-.022-.005-.044-.006-.066 0-.02.006-.042.006-.063 0-.022-.005-.044-.006-.066 0-.021.006-.042.006-.063 0-.023-.005-.044-.006-.066 0-.021.006-.042.006-.064s-.005-.043-.006-.065c0-.021.006-.042.006-.064s-.005-.043-.006-.065c0-.021.006-.042.006-.063 0-.023-.005-.044-.006-.066 0-.021.006-.042.006-.064s-.005-.043-.006-.065c0-.022.006-.043.006-.064 0-.022-.005-.043-.006-.064 0-.022.006-.043.006-.065 0-.022-.005-.043-.006-.065 0-.021.006-.043.006-.064 0-.022-.005-.043-.006-.065 0-.021.006-.042.006-.064s-.005-.043-.006-.065c0-.021.006-.042.006-.064s-.005-.043-.006-.065c0-.021.006-.043.006-.064 0-.022-.005-.043-.006-.065 0-.021.006-.043.006-.064 0-.022-.005-.043-.006-.065 0-.022.006-.043.006-.064 0-.022-.005-.044-.006-.065 0-.022.006-.043.006-.064 0-.022-.005-.044-.006-.065 0-.022.006-.043.006-.065 0-.021-.005-.043-.006-.064 0-.022.006-.043.006-.065 0-.021-.005-.043-.006-.064 0-.022.006-.043.006-.065 0-.022-.005-.043-.006-.065 0-.021.006-.042.006-.064s-.005-.043-.006-.064c0-.022.006-.043.006-.065 0-.022-.005-.043-.006-.064 0-.022.006-.043.006-.065 0-.022-.005-.043-.006-.065 0-.021.006-.043.006-.064 0-.022-.005-.043-.006-.065 0-.021.006-.042.006-.064s-.005-.043-.006-.065c0-.021.006-.043.006-.064 0-.022-.005-.043-.006-.065 0-.021.006-.043.006-.064 0-.022-.005-.043-.006-.065 0-.021.006-.043.006-.064 0-.022-.005-.043-.006-.065 0-.022.006-.043.006-.065 0-.021-.005-.042-.006-.064 0-.021.006-.043.006-.064 0-.022-.005-.043-.006-.065 0-.022.006-.043.006-.065 0-.021-.005-.043-.006-.064 0-.022.006-.043.006-.065 0-.021-.005-.043-.006-.064 0-.022.006-.043.006-.065 0-.022-.005-.043-.006-.065 0-.021.006-.042.006-.064 0-.021-.005-.043-.006-.064 0-.022.006-.043.006-.065 0-.021-.005-.043-.006-.064 0-.022.006-.043.006-.065 0-.744-.513-1.458-1.425-1.984-.949-.548-2.192-.822-3.436-.823z" fill="#222937"/><path d="M250.904 150.638a4.86 2.806 0 01-6.874 0 4.86 2.806 0 010-3.97 4.86 2.806 0 016.874 0 4.86 2.806 0 010 3.97z" fill="#37425a"/><path d="M238.302 151.138c-1.244 0-2.488.274-3.437.822h-.001c-.911.527-1.423 1.24-1.424 1.985 0 .022.005.043.006.064 0 .022-.006.043-.006.065 0 .022.005.043.006.064 0 .022-.006.043-.006.064v.001c0 .022.005.043.006.065 0 .021-.006.042-.006.064s.005.043.006.065c0 .021-.006.042-.006.064s.005.043.006.065c0 .021-.006.043-.006.064 0 .022.005.043.006.065 0 .021-.006.043-.006.064 0 .022.005.043.006.065 0 .021-.006.042-.006.064s.005.043.006.064c0 .022-.006.043-.006.065 0 .022.005.043.006.065 0 .021-.006.043-.006.064 0 .022.005.043.006.065 0 .021-.006.043-.006.064v.001c0 .022.005.043.006.064 0 .022-.006.043-.006.065 0 .021.005.043.006.064 0 .022-.006.043-.006.064 0 .023.005.044.006.065 0 .022-.006.043-.006.065 0 .022.005.043.006.064 0 .022-.006.043-.006.065 0 .021.005.043.006.064 0 .022-.006.043-.006.065 0 .022.005.043.006.065 0 .021-.006.042-.006.064s.005.043.006.065c0 .021-.006.042-.006.064s.005.043.006.064c0 .022-.006.043-.006.065 0 .022.005.043.006.065 0 .021-.006.043-.006.064 0 .022.005.043.006.065 0 .021-.006.043-.006.064 0 .022.005.043.006.065 0 .021-.006.043-.006.064 0 .022.005.043.006.065 0 .021-.006.043-.006.064 0 .022.005.043.006.065 0 .022-.006.043-.006.065 0 .021.005.043.006.064 0 .022-.006.043-.006.065 0 .021.005.043.006.064 0 .022-.006.043-.006.065 0 .021.005.043.006.064 0 .022-.006.043-.006.065 0 .022.005.043.006.064 0 .022-.006.043-.006.065 0 .021.005.043.006.064 0 .022-.006.043-.006.065 0 .022.005.043.006.065 0 .021-.006.042-.006.064s.005.043.006.065c0 .021-.006.042-.006.064s.005.043.006.064c0 .022-.006.043-.006.065 0 .022.005.043.006.065 0 .021-.006.043-.006.064 0 .022.005.043.006.065 0 .021-.006.043-.006.064 0 .022.005.043.006.065 0 .022-.006.043-.006.065 0 .021.005.042.006.064 0 .021-.006.043-.006.064 0 .022.005.043.006.065 0 .021-.006.043-.006.064 0 .022.005.043.006.065 0 .022-.006.043-.006.065 0 .021.005.043.006.064 0 .022-.006.043-.006.065 0 .022.005.043.006.064 0 .022-.006.043-.006.065 0 .021.005.043.006.064 0 .022-.006.043-.006.065 0 .021.005.043.006.064 0 .022-.006.043-.006.065 0 .744.512 1.458 1.424 1.984 1.898 1.096 4.976 1.096 6.874 0 .911-.526 1.423-1.24 1.424-1.984 0-.022-.005-.044-.005-.065 0-.022.005-.043.005-.064 0-.022-.005-.044-.005-.066 0-.02.005-.042.005-.063 0-.022-.005-.044-.005-.065 0-.022.005-.043.005-.064 0-.022-.005-.044-.005-.066 0-.02.005-.042.005-.063 0-.022-.005-.044-.005-.066 0-.021.005-.042.005-.063 0-.023-.005-.044-.005-.066 0-.021.005-.042.005-.063v-.001c0-.022-.005-.043-.005-.065 0-.02.005-.042.005-.063 0-.023-.005-.044-.005-.066 0-.021.005-.042.005-.063 0-.023-.005-.044-.005-.066 0-.021.005-.042.005-.064s-.005-.043-.005-.065c0-.021.005-.042.005-.064s-.005-.044-.005-.065c0-.022.005-.043.005-.064 0-.022-.005-.043-.005-.065 0-.021.005-.042.005-.064s-.005-.044-.005-.065c0-.022.005-.042.005-.064s-.005-.044-.005-.065c0-.022.005-.043.005-.064 0-.022-.005-.043-.005-.065 0-.021.005-.043.005-.064 0-.022-.005-.043-.005-.065 0-.021.005-.043.005-.064 0-.022-.005-.043-.005-.065 0-.022.005-.043.005-.064 0-.022-.005-.043-.005-.065 0-.021.005-.043.005-.064 0-.022-.005-.043-.005-.065 0-.022.005-.043.005-.065 0-.021-.005-.043-.005-.064 0-.022.005-.043.005-.065 0-.021-.005-.043-.005-.064 0-.022.005-.043.005-.064 0-.023-.005-.044-.005-.066 0-.021.005-.042.005-.064s-.005-.043-.005-.064c0-.022.005-.043.005-.065 0-.021-.005-.043-.005-.064 0-.022.005-.043.005-.065 0-.022-.005-.043-.005-.065 0-.021.005-.043.005-.064 0-.022-.005-.043-.005-.065 0-.021.005-.042.005-.064s-.005-.043-.005-.064c0-.022.005-.043.005-.065 0-.022-.005-.043-.005-.065 0-.021.005-.043.005-.064 0-.022-.005-.043-.005-.065 0-.021.005-.043.005-.064 0-.022-.005-.043-.005-.065 0-.022.005-.043.005-.064 0-.022-.005-.044-.005-.065 0-.022.005-.043.005-.064 0-.022-.005-.043-.005-.065 0-.022.005-.043.005-.065 0-.021-.005-.043-.005-.064 0-.022.005-.043.005-.065 0-.021-.005-.043-.005-.064 0-.022.005-.043.005-.065 0-.021-.005-.043-.005-.064 0-.022.005-.043.005-.065 0-.022-.005-.043-.005-.064 0-.022.005-.043.005-.065 0-.021-.005-.043-.005-.064 0-.022.005-.043.005-.065 0-.022-.005-.043-.005-.065 0-.021.005-.043.005-.064 0-.022-.005-.043-.005-.065 0-.021.005-.042.005-.064s-.005-.043-.005-.064c0-.022.005-.043.005-.065 0-.022-.005-.043-.005-.065 0-.021.005-.043.005-.064 0-.745-.512-1.458-1.424-1.985-.949-.547-2.193-.822-3.436-.822z" fill="#222937"/><path d="M241.738 155.93a4.86 2.806 0 01-6.874 0 4.86 2.806 0 010-3.97 4.86 2.806 0 016.874 0 4.86 2.806 0 010 3.97z" fill="#37425a"/></g><g paint-order="stroke markers fill"><path d="M233.727 137.856c-1.244 0-2.488.274-3.437.822-.912.527-1.423 1.24-1.424 1.984 0 .022.004.043.005.065 0 .022-.005.043-.005.065 0 .022.004.043.005.064 0 .022-.005.043-.005.064v.001c0 .022.004.043.005.064 0 .022-.005.043-.005.064 0 .023.004.044.005.066 0 .02-.005.042-.005.064s.004.043.005.065c0 .021-.005.042-.005.064s.004.043.005.064c0 .022-.005.043-.005.065 0 .022.004.043.005.065 0 .021-.005.042-.005.064s.004.043.005.064c0 .022-.005.043-.005.065 0 .022.004.043.005.064 0 .022-.005.043-.005.065 0 .022.004.043.005.065 0 .021-.005.043-.005.064 0 .022.004.043.005.065 0 .021-.005.043-.005.064 0 .022.004.043.005.065 0 .022-.005.043-.005.064 0 .022.004.044.005.065 0 .022-.005.043-.005.064 0 .022.004.044.005.065 0 .022-.005.043-.005.065 0 .021.004.043.005.064 0 .022-.005.043-.005.065 0 .021.004.043.005.064 0 .022-.005.043-.005.064v.001c0 .022.004.043.005.065 0 .021-.005.042-.005.064s.004.043.005.064c0 .022-.005.043-.005.065 0 .022.004.043.005.064 0 .022-.005.043-.005.065 0 .022.004.043.005.065 0 .021-.005.043-.005.064 0 .022.004.043.005.065 0 .021-.005.042-.005.064s.004.043.005.065c0 .021-.005.042-.005.064s.004.043.005.065c0 .021-.005.043-.005.064 0 .022.004.043.005.065 0 .022-.005.043-.005.065 0 .021.004.042.005.064 0 .022-.005.043-.005.065 0 .021.004.042.005.064 0 .021-.005.043-.005.064 0 .022.004.044.005.065 0 .022-.005.043-.005.065 0 .021.004.043.005.064 0 .022-.005.043-.005.065 0 .021.004.043.005.064 0 .022-.005.043-.005.065 0 .022.004.043.005.065 0 .021-.005.042-.005.064s.004.043.005.064c0 .022-.005.043-.005.065 0 .021.004.043.005.064 0 .022-.005.043-.005.065 0 .022.004.043.005.065 0 .021-.005.043-.005.064 0 .022.004.043.005.065 0 .021-.005.043-.005.064 0 .022.004.043.005.064 0 .022-.005.043-.005.065 0 .022.004.043.005.065 0 .021-.005.043-.005.064 0 .022.004.043.005.065 0 .021-.005.043-.005.064 0 .022.004.043.005.065 0 .022-.005.043-.005.065 0 .021.004.043.005.064 0 .022-.005.043-.005.064 0 .022.004.043.005.065 0 .022-.005.043-.005.065 0 .021.004.043.005.064 0 .022-.005.043-.005.065 0 .744.511 1.458 1.423 1.984 1.898 1.096 4.976 1.096 6.874 0 .911-.526 1.424-1.24 1.425-1.984 0-.022-.005-.044-.006-.066 0-.02.006-.042.006-.063 0-.023-.005-.044-.006-.066 0-.021.006-.042.006-.063 0-.023-.005-.044-.006-.065 0-.022.006-.043.006-.064 0-.022-.005-.044-.006-.066 0-.021.006-.042.006-.063 0-.023-.005-.044-.006-.066 0-.021.006-.042.006-.063v-.001c0-.022-.005-.043-.006-.065 0-.021.006-.042.006-.064s-.005-.043-.006-.065c0-.021.006-.042.006-.063 0-.023-.005-.044-.006-.066 0-.021.006-.042.006-.064s-.005-.043-.006-.065c0-.021.006-.042.006-.064s-.005-.044-.006-.065c0-.022.006-.043.006-.064 0-.022-.005-.044-.006-.066 0-.02.006-.042.006-.063 0-.022-.005-.044-.006-.065 0-.022.006-.042.006-.064s-.005-.044-.006-.065c0-.022.006-.043.006-.064 0-.022-.005-.044-.006-.066 0-.02.006-.042.006-.063 0-.022-.005-.043-.006-.065 0-.021.006-.043.006-.064 0-.022-.005-.043-.006-.065 0-.022.006-.043.006-.065 0-.021-.005-.043-.006-.064 0-.022.006-.043.006-.064 0-.022-.005-.043-.006-.065 0-.022.006-.043.006-.065 0-.022-.005-.043-.006-.064 0-.022.006-.043.006-.065 0-.021-.005-.043-.006-.064 0-.022.006-.043.006-.065 0-.022-.005-.043-.006-.065 0-.021.006-.042.006-.064s-.005-.043-.006-.065c0-.021.006-.042.006-.064s-.005-.043-.006-.064c0-.022.006-.043.006-.065 0-.022-.005-.043-.006-.065 0-.021.006-.043.006-.064 0-.022-.005-.043-.006-.065 0-.021.006-.043.006-.064 0-.022-.005-.043-.006-.065 0-.021.006-.043.006-.064 0-.022-.005-.043-.006-.065 0-.021.006-.043.006-.064 0-.022-.005-.043-.006-.065 0-.021.006-.043.006-.064 0-.022-.005-.043-.006-.065 0-.022.006-.043.006-.065 0-.021-.005-.043-.006-.064 0-.022.006-.043.006-.064 0-.023-.005-.044-.006-.065 0-.022.006-.043.006-.065 0-.021-.005-.043-.006-.064 0-.022.006-.043.006-.065 0-.021-.005-.043-.006-.064 0-.022.006-.043.006-.065 0-.022-.005-.043-.006-.065 0-.021.006-.042.006-.064s-.005-.043-.006-.064c0-.022.006-.043.006-.065 0-.022-.005-.043-.006-.064 0-.022.006-.043.006-.065 0-.022-.005-.043-.006-.065 0-.021.006-.043.006-.064 0-.022-.005-.043-.006-.065 0-.021.006-.043.006-.064 0-.022-.005-.043-.006-.065 0-.021.006-.043.006-.064 0-.022-.005-.043-.006-.065 0-.021.006-.043.006-.064 0-.022-.005-.043-.006-.065 0-.021.006-.043.006-.064 0-.745-.513-1.458-1.425-1.985-.949-.548-2.192-.822-3.436-.822z" fill="#222937"/><path d="M237.164 142.647a4.86 2.806 0 01-6.874 0 4.86 2.806 0 010-3.969 4.86 2.806 0 016.874 0 4.86 2.806 0 010 3.97z" fill="#37425a"/><path d="M224.562 143.148c-1.244 0-2.488.274-3.437.822h-.001c-.911.526-1.423 1.24-1.424 1.984 0 .022.005.043.006.065 0 .021-.006.043-.006.064 0 .022.005.043.006.065 0 .021-.006.042-.006.064v.001c0 .022.005.043.006.064 0 .022-.006.043-.006.064 0 .022.005.044.006.065 0 .022-.006.043-.006.064 0 .023.005.044.006.065 0 .022-.006.043-.006.065 0 .022.005.043.006.064 0 .022-.006.043-.006.065 0 .021.005.043.006.064 0 .022-.006.043-.006.064v.001c0 .021.005.043.006.064 0 .022-.006.043-.006.065 0 .022.005.043.006.064 0 .022-.006.043-.006.065 0 .022.005.043.006.064 0 .022-.006.043-.006.065 0 .022.005.043.006.065 0 .021-.006.043-.006.064 0 .022.005.043.006.065 0 .021-.006.042-.006.064s.005.043.006.065c0 .021-.006.043-.006.064 0 .022.005.043.006.065 0 .021-.006.043-.006.064 0 .022.005.043.006.065 0 .022-.006.043-.006.065 0 .021.005.043.006.064 0 .022-.006.043-.006.064 0 .022.005.044.006.065 0 .022-.006.043-.006.064 0 .022.005.044.006.065 0 .022-.006.043-.006.065 0 .022.005.043.006.064 0 .022-.006.043-.006.065 0 .021.005.043.006.064 0 .022-.006.043-.006.065 0 .022.005.043.006.065 0 .021-.006.042-.006.064s.005.043.006.064c0 .022-.006.043-.006.065 0 .022.005.043.006.064 0 .022-.006.043-.006.065 0 .022.005.043.006.065 0 .021-.006.043-.006.064 0 .022.005.043.006.065 0 .021-.006.043-.006.064 0 .022.005.043.006.065 0 .021-.006.042-.006.064s.005.043.006.065c0 .021-.006.043-.006.064 0 .022.005.043.006.065 0 .022-.006.043-.006.065 0 .021.005.043.006.064 0 .022-.006.043-.006.065 0 .021.005.043.006.064 0 .022-.006.043-.006.064 0 .022.005.044.006.065 0 .022-.006.043-.006.065 0 .021.005.043.006.064 0 .022-.006.043-.006.065 0 .021.005.043.006.064 0 .022-.006.043-.006.065 0 .022.005.043.006.065 0 .021-.006.043-.006.064 0 .022.005.043.006.064 0 .022-.006.043-.006.065 0 .022.005.043.006.064 0 .022-.006.043-.006.065 0 .022.005.043.006.065 0 .021-.006.043-.006.064 0 .022.005.043.006.065 0 .021-.006.043-.006.064 0 .022.005.043.006.065 0 .021-.006.043-.006.064 0 .022.005.043.006.065 0 .021-.006.043-.006.064 0 .022.005.043.006.065 0 .021-.006.043-.006.064 0 .745.512 1.459 1.424 1.985 1.898 1.096 4.976 1.096 6.874 0 .911-.526 1.423-1.24 1.424-1.984 0-.023-.005-.044-.005-.066 0-.021.005-.042.005-.063 0-.023-.005-.044-.005-.066 0-.021.005-.042.005-.064s-.005-.043-.005-.065c0-.021.005-.042.005-.063 0-.023-.005-.044-.005-.066 0-.021.005-.042.005-.063v-.001c0-.022-.005-.043-.005-.065 0-.021.005-.042.005-.064s-.005-.044-.005-.065c0-.022.005-.043.005-.064 0-.022-.005-.043-.005-.065 0-.021.005-.042.005-.064s-.005-.043-.005-.065c0-.022.005-.042.005-.064s-.005-.044-.005-.065c0-.022.005-.043.005-.064 0-.022-.005-.044-.005-.066 0-.02.005-.042.005-.063 0-.023-.005-.044-.005-.066 0-.021.005-.042.005-.063 0-.022-.005-.044-.005-.066 0-.02.005-.042.005-.063 0-.022-.005-.044-.005-.066 0-.021.005-.042.005-.063 0-.023-.005-.044-.005-.066 0-.021.005-.042.005-.063v-.001c0-.022-.005-.043-.005-.064 0-.022.005-.043.005-.065 0-.021-.005-.043-.005-.064 0-.022.005-.043.005-.065 0-.022-.005-.043-.005-.064 0-.022.005-.043.005-.065 0-.022-.005-.043-.005-.064 0-.022.005-.043.005-.065 0-.022-.005-.043-.005-.064 0-.022.005-.043.005-.065 0-.022-.005-.043-.005-.065 0-.021.005-.042.005-.064s-.005-.043-.005-.065c0-.021.005-.042.005-.064s-.005-.043-.005-.065c0-.021.005-.043.005-.064 0-.022-.005-.043-.005-.065 0-.021.005-.043.005-.064 0-.022-.005-.043-.005-.065 0-.021.005-.043.005-.064 0-.022-.005-.043-.005-.065 0-.022.005-.043.005-.065 0-.021-.005-.043-.005-.064 0-.022.005-.043.005-.064 0-.022-.005-.043-.005-.065 0-.022.005-.043.005-.064v-.001c0-.022-.005-.043-.005-.064 0-.022.005-.043.005-.065 0-.021-.005-.043-.005-.064 0-.022.005-.043.005-.065 0-.022-.005-.043-.005-.064 0-.022.005-.043.005-.065 0-.022-.005-.043-.005-.065 0-.021.005-.042.005-.064 0-.021-.005-.043-.005-.064 0-.022.005-.043.005-.065 0-.022-.005-.043-.005-.065 0-.021.005-.042.005-.064s-.005-.043-.005-.065c0-.021.005-.043.005-.064 0-.022-.005-.043-.005-.064 0-.022.005-.043.005-.065 0-.022-.005-.043-.005-.065 0-.021.005-.043.005-.064 0-.022-.005-.043-.005-.065 0-.021.005-.043.005-.064 0-.022-.005-.043-.005-.065 0-.022.005-.043.005-.065 0-.021-.005-.043-.005-.064 0-.022.005-.043.005-.064 0-.022-.005-.043-.005-.065 0-.022.005-.043.005-.064 0-.022-.005-.043-.005-.065 0-.022.005-.043.005-.065 0-.744-.512-1.458-1.424-1.984-.949-.548-2.193-.822-3.436-.822z" fill="#222937"/><path d="M227.998 147.939a4.86 2.806 0 01-6.874 0 4.86 2.806 0 010-3.969 4.86 2.806 0 016.874 0 4.86 2.806 0 010 3.969z" fill="#37425a"/></g><g paint-order="stroke markers fill"><path d="M219.978 129.961c-1.243 0-2.487.274-3.436.822h-.001c-.911.527-1.423 1.24-1.424 1.984 0 .022.005.044.006.065 0 .022-.006.043-.006.065 0 .022.005.043.006.064 0 .022-.006.043-.006.064v.001c0 .022.005.043.006.064 0 .022-.006.043-.006.064v.001c0 .022.005.043.006.065 0 .021-.006.042-.006.064s.005.043.006.065c0 .021-.006.042-.006.064s.005.043.006.065c0 .021-.006.042-.006.064s.005.043.006.065c0 .021-.006.042-.006.064s.005.043.006.064c0 .022-.006.043-.006.065 0 .022.005.043.006.065 0 .021-.006.043-.006.064 0 .022.005.043.006.065 0 .021-.006.043-.006.064 0 .022.005.044.006.065 0 .022-.006.043-.006.065 0 .021.005.043.006.064 0 .022-.006.043-.006.064 0 .022.005.044.006.065 0 .022-.006.043-.006.064v.001c0 .022.005.043.006.064 0 .022-.006.043-.006.065 0 .021.005.043.006.064 0 .022-.006.043-.006.065 0 .022.005.043.006.064 0 .022-.006.043-.006.065 0 .022.005.043.006.065 0 .021-.006.042-.006.064s.005.043.006.064c0 .022-.006.043-.006.065 0 .022.005.043.006.065 0 .021-.006.042-.006.064s.005.043.006.065c0 .021-.006.043-.006.064 0 .022.005.043.006.065 0 .021-.006.042-.006.064s.005.043.006.065c0 .021-.006.043-.006.064 0 .022.005.043.006.065 0 .021-.006.043-.006.064 0 .022.005.043.006.065 0 .022-.006.043-.006.065 0 .021.005.043.006.064 0 .022-.006.043-.006.065 0 .021.005.042.006.064 0 .021-.006.043-.006.064v.001c0 .022.005.043.006.064 0 .022-.006.043-.006.065 0 .021.005.043.006.064 0 .022-.006.043-.006.065 0 .022.005.043.006.064 0 .022-.006.043-.006.065 0 .022.005.043.006.065 0 .021-.006.042-.006.064s.005.043.006.064c0 .022-.006.043-.006.065 0 .022.005.043.006.065 0 .021-.006.042-.006.064s.005.043.006.065c0 .021-.006.043-.006.064 0 .022.005.043.006.065 0 .022-.006.043-.006.065 0 .021.005.042.006.064 0 .021-.006.042-.006.064s.005.043.006.065c0 .021-.006.043-.006.064 0 .022.005.043.006.065 0 .022-.006.043-.006.065 0 .021.005.043.006.064 0 .022-.006.043-.006.065 0 .021.005.043.006.064 0 .022-.006.043-.006.064 0 .022.005.043.006.065 0 .022-.006.043-.006.065 0 .021.005.043.006.064 0 .022-.006.043-.006.065 0 .744.512 1.458 1.424 1.984 1.898 1.096 4.976 1.096 6.874 0 .91-.526 1.423-1.24 1.424-1.984 0-.022-.005-.044-.006-.066.001-.02.006-.042.006-.063 0-.022-.005-.044-.006-.066.001-.021.006-.042.006-.063 0-.022-.005-.044-.006-.065.001-.022.006-.043.006-.064 0-.022-.005-.044-.006-.066.001-.02.006-.042.006-.063 0-.023-.005-.044-.006-.066.001-.021.006-.042.006-.063 0-.023-.005-.044-.006-.066.001-.021.006-.042.006-.064s-.005-.043-.006-.065c.001-.021.006-.042.006-.063 0-.023-.005-.044-.006-.066.001-.021.006-.042.006-.063v-.001c0-.022-.005-.043-.006-.065.001-.021.006-.042.006-.064s-.005-.044-.006-.065c.001-.022.006-.043.006-.064 0-.022-.005-.044-.006-.066.001-.02.006-.042.006-.063 0-.022-.005-.043-.006-.065.001-.021.006-.042.006-.064s-.005-.044-.006-.065c.001-.022.006-.043.006-.064 0-.022-.005-.044-.006-.066.001-.02.006-.042.006-.063 0-.022-.005-.043-.006-.065.001-.021.006-.043.006-.064 0-.022-.005-.043-.006-.065.001-.022.006-.043.006-.065 0-.021-.005-.043-.006-.064.001-.022.006-.043.006-.064 0-.022-.005-.043-.006-.065.001-.021.006-.043.006-.064v-.001c0-.021-.005-.043-.006-.064.001-.022.006-.043.006-.065 0-.021-.005-.043-.006-.064.001-.022.006-.043.006-.065 0-.021-.005-.043-.006-.064.001-.022.006-.043.006-.064v-.001c0-.022-.005-.043-.006-.065.001-.021.006-.042.006-.064s-.005-.043-.006-.064c.001-.022.006-.043.006-.065 0-.022-.005-.043-.006-.064.001-.022.006-.043.006-.065 0-.022-.005-.043-.006-.065.001-.021.006-.043.006-.064 0-.022-.005-.043-.006-.065.001-.021.006-.042.006-.064s-.005-.043-.006-.065c.001-.021.006-.043.006-.064 0-.022-.005-.043-.006-.065.001-.021.006-.043.006-.064 0-.022-.005-.043-.006-.065.001-.022.006-.043.006-.065 0-.021-.005-.043-.006-.064.001-.022.006-.043.006-.064 0-.022-.005-.044-.006-.065.001-.022.006-.043.006-.064 0-.022-.005-.043-.006-.065.001-.022.006-.043.006-.065 0-.021-.005-.043-.006-.064.001-.022.006-.043.006-.065 0-.021-.005-.043-.006-.064.001-.022.006-.043.006-.065 0-.022-.005-.043-.006-.064.001-.022.006-.043.006-.065 0-.022-.005-.043-.006-.064.001-.022.006-.043.006-.065 0-.022-.005-.043-.006-.064.001-.022.006-.043.006-.065 0-.022-.005-.043-.006-.065.001-.021.006-.043.006-.064 0-.022-.005-.043-.006-.065.001-.021.006-.042.006-.064s-.005-.043-.006-.065c.001-.021.006-.042.006-.064s-.005-.043-.006-.065c.001-.021.006-.043.006-.064 0-.745-.512-1.458-1.424-1.985-.95-.548-2.193-.822-3.437-.822z" fill="#222937"/><path d="M223.415 134.752a4.86 2.806 0 01-6.874 0 4.86 2.806 0 010-3.968 4.86 2.806 0 016.874 0 4.86 2.806 0 010 3.968z" fill="#37425a"/><path d="M210.813 135.253c-1.244 0-2.487.274-3.436.822h-.001c-.911.527-1.423 1.24-1.424 1.984 0 .022.005.043.006.065-.001.021-.006.043-.006.064 0 .022.005.044.006.065-.001.021-.006.043-.006.064v.001c0 .022.005.043.006.064-.001.022-.006.043-.006.064 0 .022.005.044.006.065-.001.022-.006.043-.006.064v.001c0 .022.005.043.006.065-.001.021-.006.042-.006.064s.005.043.006.064c-.001.022-.006.043-.006.065 0 .022.005.043.006.064-.001.022-.006.043-.006.065 0 .022.005.043.006.064-.001.022-.006.043-.006.065 0 .022.005.043.006.064-.001.022-.006.043-.006.065 0 .022.005.043.006.065-.001.021-.006.042-.006.064s.005.043.006.065c-.001.021-.006.043-.006.064 0 .022.005.043.006.065-.001.021-.006.043-.006.064 0 .022.005.044.006.065-.001.022-.006.043-.006.064 0 .022.005.043.006.065-.001.021-.006.043-.006.064 0 .022.005.043.006.065-.001.022-.006.043-.006.065 0 .021.005.043.006.064-.001.022-.006.043-.006.064 0 .022.005.044.006.065-.001.022-.006.043-.006.065 0 .022.005.043.006.064-.001.022-.006.043-.006.065 0 .022.005.043.006.064-.001.022-.006.043-.006.065 0 .022.005.043.006.065-.001.021-.006.042-.006.064s.005.043.006.065c-.001.021-.006.042-.006.064s.005.043.006.064c-.001.022-.006.043-.006.065 0 .022.005.043.006.065-.001.021-.006.043-.006.064 0 .022.005.043.006.065-.001.021-.006.043-.006.064 0 .022.005.043.006.065-.001.022-.006.043-.006.065 0 .021.005.042.006.064-.001.021-.006.043-.006.064 0 .022.005.043.006.065-.001.021-.006.043-.006.064 0 .022.005.043.006.065-.001.022-.006.043-.006.065 0 .021.005.043.006.064-.001.022-.006.043-.006.065 0 .021.005.043.006.064-.001.022-.006.043-.006.065 0 .022.005.043.006.064-.001.022-.006.043-.006.065 0 .021.005.043.006.064-.001.022-.006.043-.006.065 0 .022.005.043.006.064-.001.022-.006.043-.006.065 0 .022.005.043.006.065-.001.021-.006.043-.006.064 0 .022.005.043.006.064-.001.022-.006.043-.006.065 0 .022.005.043.006.065-.001.021-.006.042-.006.064s.005.043.006.065c-.001.021-.006.043-.006.064 0 .022.005.043.006.065-.001.022-.006.043-.006.065 0 .021.005.042.006.064-.001.022-.006.043-.006.064 0 .022.005.043.006.065-.001.021-.006.043-.006.064 0 .022.005.043.006.065-.001.022-.006.043-.006.065 0 .744.512 1.458 1.424 1.984 1.898 1.096 4.976 1.096 6.874 0 .91-.526 1.423-1.24 1.424-1.984 0-.022-.005-.044-.006-.066 0-.021.006-.042.006-.063 0-.023-.005-.044-.006-.066 0-.021.006-.042.006-.064s-.005-.043-.006-.065c0-.02.006-.042.006-.063 0-.023-.005-.044-.006-.066 0-.021.006-.042.006-.063 0-.023-.005-.044-.006-.066 0-.021.006-.042.006-.064s-.005-.043-.006-.065c0-.021.006-.042.006-.064s-.005-.043-.006-.065c0-.021.006-.042.006-.063v-.001c0-.022-.005-.043-.006-.065 0-.021.006-.042.006-.064s-.005-.044-.006-.065c0-.022.006-.043.006-.064 0-.022-.005-.044-.006-.066 0-.02.006-.042.006-.063 0-.022-.005-.044-.006-.066 0-.021.006-.042.006-.063 0-.022-.005-.044-.006-.065 0-.022.006-.043.006-.064 0-.022-.005-.044-.006-.066 0-.02.006-.042.006-.063 0-.023-.005-.044-.006-.066 0-.021.006-.042.006-.063 0-.022-.005-.044-.006-.065 0-.022.006-.043.006-.065 0-.021-.005-.043-.006-.064 0-.022.006-.043.006-.065 0-.021-.005-.043-.006-.064 0-.022.006-.043.006-.064v-.001c0-.021-.005-.043-.006-.064 0-.022.006-.043.006-.065 0-.022-.005-.043-.006-.064 0-.022.006-.043.006-.065 0-.022-.005-.043-.006-.064 0-.022.006-.043.006-.065 0-.022-.005-.043-.006-.065 0-.021.006-.042.006-.064s-.005-.043-.006-.065c0-.021.006-.042.006-.064s-.005-.043-.006-.065c0-.021.006-.042.006-.064s-.005-.043-.006-.065c0-.021.006-.043.006-.064 0-.022-.005-.043-.006-.065 0-.022.006-.043.006-.065 0-.021-.005-.043-.006-.064 0-.022.006-.043.006-.064 0-.022-.005-.043-.006-.065 0-.021.006-.043.006-.064 0-.022-.005-.044-.006-.065 0-.022.006-.043.006-.065 0-.021-.005-.043-.006-.064 0-.022.006-.043.006-.065 0-.021-.005-.043-.006-.064 0-.022.006-.043.006-.064v-.001c0-.022-.005-.043-.006-.065 0-.021.006-.042.006-.064 0-.021-.005-.043-.006-.064 0-.022.006-.043.006-.065 0-.022-.005-.043-.006-.064 0-.022.006-.043.006-.065 0-.022-.005-.043-.006-.065 0-.021.006-.043.006-.064 0-.022-.005-.043-.006-.064 0-.022.006-.043.006-.065 0-.022-.005-.043-.006-.065 0-.021.006-.042.006-.064s-.005-.043-.006-.065c0-.021.006-.043.006-.064 0-.022-.005-.043-.006-.065 0-.022.006-.043.006-.064 0-.022-.005-.043-.006-.065 0-.022.006-.043.006-.064 0-.022-.005-.043-.006-.065 0-.021.006-.043.006-.064 0-.022-.005-.043-.006-.065 0-.022.006-.043.006-.065 0-.744-.512-1.458-1.424-1.984-.95-.548-2.193-.822-3.437-.822z" fill="#222937"/><path d="M214.25 140.044a4.86 2.806 0 01-6.874 0 4.86 2.806 0 010-3.969 4.86 2.806 0 016.874 0 4.86 2.806 0 010 3.97z" fill="#37425a"/></g><g paint-order="stroke markers fill"><path d="M178.73 106.13c-1.244 0-2.488.274-3.437.821v.001c-.912.526-1.423 1.24-1.424 1.984 0 .022.004.043.005.064 0 .022-.005.043-.005.065 0 .022.004.043.005.065 0 .021-.005.042-.005.064s.004.043.005.065c0 .021-.005.042-.005.064s.004.043.005.065c0 .021-.005.043-.005.064 0 .022.004.044.005.065 0 .022-.005.043-.005.064 0 .022.004.043.005.065 0 .022-.005.043-.005.065 0 .021.004.043.005.064 0 .022-.005.043-.005.064 0 .022.004.043.005.065 0 .021-.005.043-.005.064 0 .022.004.044.005.065 0 .022-.005.043-.005.065 0 .022.004.043.005.064 0 .022-.005.043-.005.065 0 .022.004.043.005.064 0 .022-.005.043-.005.065 0 .022.004.043.005.065 0 .021-.005.042-.005.064s.004.043.005.065c0 .021-.005.042-.005.064s.004.043.005.064c0 .022-.005.043-.005.065 0 .022.004.043.005.065 0 .021-.005.043-.005.064 0 .022.004.043.005.065 0 .021-.005.042-.005.064s.004.043.005.065c0 .022-.005.043-.005.064 0 .022.004.043.005.065 0 .021-.005.043-.005.064 0 .022.004.043.005.065 0 .022-.005.043-.005.065 0 .021.004.043.005.064 0 .022-.005.043-.005.065 0 .021.004.043.005.064 0 .022-.005.043-.005.064 0 .022.004.044.005.065 0 .022-.005.043-.005.065 0 .022.004.043.005.064 0 .022-.005.043-.005.065 0 .021.004.043.005.064 0 .022-.005.043-.005.065 0 .022.004.043.005.065 0 .021-.005.043-.005.064 0 .022.004.043.005.064 0 .022-.005.043-.005.065 0 .022.004.043.005.064 0 .022-.005.043-.005.065 0 .022.004.043.005.065 0 .021-.005.043-.005.064 0 .022.004.043.005.065 0 .021-.005.043-.005.064 0 .022.004.043.005.065 0 .022-.005.043-.005.064 0 .022.004.043.005.065 0 .021-.005.043-.005.064 0 .022.004.043.005.065 0 .022-.005.043-.005.065 0 .021.004.043.005.064 0 .022-.005.043-.005.065 0 .021.004.043.005.064 0 .022-.005.043-.005.065 0 .021.004.043.005.064 0 .022-.005.043-.005.065 0 .021.004.043.005.064 0 .022-.005.043-.005.065 0 .021.004.043.005.064 0 .022-.005.043-.005.065 0 .022.004.043.005.065 0 .021-.005.043-.005.064 0 .022.004.043.005.065 0 .021-.005.042-.005.064s.004.043.005.064c0 .022-.005.043-.005.065 0 .022.004.043.005.065 0 .021-.005.043-.005.064 0 .745.511 1.458 1.423 1.985 1.898 1.095 4.976 1.095 6.874 0 .911-.527 1.423-1.24 1.424-1.984v-.001c0-.022-.004-.043-.005-.065 0-.021.005-.042.005-.064s-.004-.043-.005-.065c0-.022.005-.043.005-.064 0-.022-.004-.043-.005-.065 0-.021.005-.042.005-.064s-.004-.043-.005-.065c0-.021.005-.042.005-.064s-.004-.044-.005-.065c0-.022.005-.043.005-.064 0-.022-.004-.044-.005-.066 0-.02.005-.042.005-.063 0-.022-.004-.044-.005-.065 0-.022.005-.043.005-.064 0-.022-.004-.044-.005-.065 0-.022.005-.043.005-.064 0-.022-.004-.044-.005-.066 0-.02.005-.042.005-.063 0-.023-.004-.044-.005-.066 0-.021.005-.042.005-.063v-.001c0-.022-.004-.043-.005-.065 0-.021.005-.042.005-.064 0-.021-.004-.043-.005-.065 0-.021.005-.042.005-.063 0-.023-.004-.044-.005-.066 0-.021.005-.042.005-.064s-.004-.043-.005-.065c0-.021.005-.042.005-.064s-.004-.043-.005-.064c0-.022.005-.043.005-.065 0-.022-.004-.043-.005-.065 0-.021.005-.042.005-.064s-.004-.043-.005-.065c0-.021.005-.042.005-.064s-.004-.043-.005-.064c0-.022.005-.043.005-.065 0-.022-.004-.043-.005-.065 0-.021.005-.043.005-.064 0-.022-.004-.043-.005-.065 0-.021.005-.043.005-.064 0-.022-.004-.043-.005-.065 0-.021.005-.043.005-.064 0-.022-.004-.044-.005-.065 0-.022.005-.043.005-.064 0-.022-.004-.043-.005-.065 0-.021.005-.043.005-.064 0-.022-.004-.043-.005-.065 0-.022.005-.043.005-.065 0-.021-.004-.043-.005-.064 0-.022.005-.043.005-.065 0-.022-.004-.043-.005-.064 0-.022.005-.043.005-.065 0-.022-.004-.043-.005-.064 0-.022.005-.043.005-.065 0-.022-.004-.043-.005-.064 0-.022.005-.043.005-.065 0-.022-.004-.043-.005-.065 0-.021.005-.042.005-.064s-.004-.043-.005-.065c0-.021.005-.042.005-.064s-.004-.043-.005-.065c0-.021.005-.042.005-.064s-.004-.043-.005-.065c0-.021.005-.043.005-.064 0-.022-.004-.043-.005-.065 0-.021.005-.043.005-.064 0-.022-.004-.043-.005-.065 0-.022.005-.043.005-.065 0-.021-.004-.042-.005-.064 0-.021.005-.043.005-.064 0-.022-.004-.043-.005-.065 0-.021.005-.043.005-.064 0-.022-.004-.043-.005-.065 0-.022.005-.043.005-.065 0-.021-.004-.043-.005-.064 0-.022.005-.043.005-.065 0-.022-.004-.043-.005-.064 0-.022.005-.043.005-.065 0-.021-.004-.043-.005-.064 0-.022.005-.043.005-.065 0-.021-.004-.043-.005-.064 0-.022.005-.043.005-.065 0-.744-.512-1.458-1.424-1.984-.949-.548-2.192-.822-3.436-.822z" fill="#222937"/><path d="M182.167 110.92a4.86 2.806 0 01-6.875 0 4.86 2.806 0 010-3.968 4.86 2.806 0 016.875 0 4.86 2.806 0 010 3.969z" fill="#37425a"/><path d="M169.564 111.422c-1.243 0-2.487.273-3.436.821h-.001c-.911.527-1.423 1.24-1.424 1.985 0 .022.005.043.006.064 0 .022-.006.043-.006.065 0 .022.005.043.006.064 0 .022-.006.043-.006.064v.002c0 .021.005.042.006.064 0 .021-.006.042-.006.064s.005.043.006.065c0 .021-.006.042-.006.064s.005.043.006.065c0 .021-.006.043-.006.064 0 .022.005.043.006.065 0 .021-.006.043-.006.064 0 .022.005.043.006.065 0 .021-.006.042-.006.064s.005.043.006.065c0 .021-.006.043-.006.064 0 .022.005.043.006.065 0 .021-.006.043-.006.064 0 .022.005.043.006.065 0 .022-.006.043-.006.065 0 .022.005.043.006.064 0 .022-.006.043-.006.065 0 .021.005.043.006.064 0 .022-.006.043-.006.064v.001c0 .022.005.043.006.065 0 .021-.006.042-.006.064s.005.043.006.064c0 .022-.006.043-.006.065 0 .022.005.043.006.064 0 .022-.006.043-.006.065 0 .022.005.043.006.065 0 .021-.006.042-.006.064s.005.043.006.065c0 .021-.006.042-.006.064s.005.043.006.065c0 .021-.006.042-.006.064s.005.043.006.065c0 .021-.006.043-.006.064 0 .022.005.043.006.065 0 .022-.006.043-.006.065 0 .021.005.043.006.064 0 .022-.006.043-.006.064 0 .022.005.043.006.065 0 .021-.006.043-.006.064 0 .022.005.044.006.065 0 .022-.006.043-.006.065 0 .021.005.043.006.064 0 .022-.006.043-.006.065 0 .021.005.043.006.064 0 .022-.006.043-.006.065 0 .021.005.043.006.064 0 .022-.006.043-.006.065 0 .022.005.043.006.064 0 .022-.006.043-.006.065 0 .022.005.043.006.064 0 .022-.006.043-.006.065 0 .022.005.043.006.065 0 .021-.006.043-.006.064 0 .022.005.043.006.065 0 .021-.006.042-.006.064s.005.043.006.065c0 .021-.006.042-.006.064s.005.043.006.065c0 .021-.006.043-.006.064 0 .022.005.043.006.065 0 .022-.006.043-.006.064 0 .022.005.043.006.065 0 .022-.006.043-.006.065 0 .021.005.042.006.064 0 .021-.006.043-.006.064 0 .022.005.043.006.065 0 .022-.006.043-.006.065 0 .021.005.043.006.064 0 .022-.006.043-.006.065 0 .021.005.043.006.064 0 .022-.006.043-.006.065 0 .022.005.043.006.065 0 .021-.006.042-.006.064 0 .021.005.043.006.064 0 .022-.006.043-.006.065 0 .021.005.043.006.064 0 .022-.006.043-.006.065 0 .744.512 1.458 1.424 1.984 1.898 1.096 4.976 1.096 6.874 0 .91-.526 1.423-1.24 1.424-1.983v-.001c0-.022-.005-.044-.006-.065.001-.022.006-.043.006-.064 0-.022-.005-.044-.006-.066.001-.02.006-.042.006-.063 0-.022-.005-.044-.006-.065.001-.022.006-.042.006-.064s-.005-.044-.006-.065c.001-.022.006-.043.006-.064 0-.022-.005-.044-.006-.066.001-.02.006-.042.006-.063 0-.023-.005-.044-.006-.066.001-.021.006-.042.006-.063 0-.023-.005-.044-.006-.066.001-.02.006-.042.006-.063 0-.022-.005-.044-.006-.066.001-.021.006-.042.006-.063 0-.023-.005-.044-.006-.066.001-.021.006-.042.006-.063v-.001c0-.022-.005-.043-.006-.065.001-.021.006-.042.006-.064s-.005-.044-.006-.065c.001-.022.006-.043.006-.064 0-.022-.005-.043-.006-.065.001-.021.006-.042.006-.064s-.005-.043-.006-.065c.001-.022.006-.042.006-.064s-.005-.044-.006-.065c.001-.022.006-.043.006-.064 0-.022-.005-.043-.006-.065.001-.021.006-.043.006-.064 0-.022-.005-.043-.006-.065.001-.021.006-.043.006-.064 0-.022-.005-.043-.006-.065.001-.021.006-.043.006-.064 0-.022-.005-.043-.006-.065.001-.021.006-.043.006-.064 0-.022-.005-.043-.006-.065.001-.021.006-.043.006-.064 0-.022-.005-.043-.006-.065.001-.022.006-.043.006-.065 0-.021-.005-.043-.006-.064.001-.022.006-.043.006-.064 0-.023-.005-.044-.006-.065.001-.022.006-.043.006-.065 0-.022-.005-.043-.006-.064.001-.022.006-.043.006-.065 0-.021-.005-.043-.006-.064.001-.022.006-.043.006-.065 0-.022-.005-.043-.006-.065.001-.021.006-.042.006-.064s-.005-.043-.006-.065c.001-.021.006-.042.006-.064s-.005-.043-.006-.064c.001-.022.006-.043.006-.065 0-.022-.005-.043-.006-.065.001-.021.006-.043.006-.064 0-.022-.005-.043-.006-.065.001-.021.006-.043.006-.064 0-.022-.005-.043-.006-.065.001-.021.006-.043.006-.064 0-.022-.005-.044-.006-.065.001-.022.006-.043.006-.064 0-.022-.005-.043-.006-.065.001-.021.006-.043.006-.064 0-.022-.005-.043-.006-.065.001-.022.006-.043.006-.065 0-.021-.005-.043-.006-.064.001-.022.006-.043.006-.065 0-.021-.005-.042-.006-.064.001-.022.006-.043.006-.065 0-.022-.005-.043-.006-.064.001-.022.006-.043.006-.065 0-.021-.005-.043-.006-.064.001-.022.006-.043.006-.065 0-.022-.005-.043-.006-.064.001-.022.006-.043.006-.065 0-.022-.005-.043-.006-.065.001-.021.006-.042.006-.064 0-.021-.005-.043-.006-.064.001-.022.006-.043.006-.065 0-.022-.005-.043-.006-.065.001-.021.006-.042.006-.064 0-.744-.512-1.458-1.424-1.985-.95-.547-2.193-.822-3.437-.822z" fill="#222937"/><path d="M173.001 116.212a4.86 2.806 0 01-6.874 0 4.86 2.806 0 010-3.968 4.86 2.806 0 016.874 0 4.86 2.806 0 010 3.968z" fill="#37425a"/></g><g paint-order="stroke markers fill"><path d="M165.019 98.198c-1.244 0-2.488.274-3.437.822-.912.527-1.423 1.24-1.424 1.984 0 .022.004.043.005.065 0 .021-.005.043-.005.064 0 .022.004.044.005.065 0 .021-.005.043-.005.064v.001c0 .022.004.043.005.064 0 .022-.005.043-.005.064 0 .022.004.044.005.065 0 .022-.005.043-.005.064v.001c0 .022.004.043.005.065 0 .021-.005.042-.005.064s.004.043.005.064c0 .022-.005.043-.005.065 0 .022.004.043.005.064 0 .022-.005.043-.005.065 0 .022.004.043.005.064 0 .022-.005.043-.005.065 0 .022.004.043.005.064 0 .022-.005.043-.005.065 0 .022.004.043.005.065 0 .021-.005.043-.005.064 0 .022.004.043.005.065 0 .021-.005.043-.005.064 0 .022.004.043.005.065 0 .021-.005.043-.005.064 0 .022.004.044.005.065 0 .022-.005.043-.005.064 0 .022.004.043.005.065 0 .021-.005.043-.005.064 0 .022.004.043.005.065 0 .022-.005.043-.005.065 0 .021.004.043.005.064 0 .022-.005.043-.005.064 0 .023.004.044.005.065 0 .022-.005.043-.005.065 0 .022.004.043.005.064 0 .022-.005.043-.005.065 0 .022.004.043.005.064 0 .022-.005.043-.005.065 0 .022.004.043.005.065 0 .021-.005.042-.005.064s.004.043.005.065c0 .021-.005.042-.005.064s.004.043.005.064c0 .022-.005.043-.005.065 0 .022.004.043.005.065 0 .021-.005.043-.005.064 0 .022.004.043.005.065 0 .021-.005.043-.005.064 0 .022.004.043.005.065 0 .022-.005.043-.005.065 0 .021.004.042.005.064 0 .021-.005.043-.005.064 0 .022.004.043.005.065 0 .021-.005.043-.005.064 0 .022.004.043.005.065 0 .022-.005.043-.005.065 0 .021.004.043.005.064 0 .022-.005.043-.005.065 0 .022.004.043.005.064 0 .022-.005.043-.005.065 0 .022.004.043.005.064 0 .022-.005.043-.005.065 0 .021.004.043.005.064 0 .022-.005.043-.005.065 0 .022.004.043.005.065 0 .021-.005.042-.005.064s.004.043.005.065c0 .021-.005.043-.005.064 0 .022.004.043.005.064 0 .022-.005.043-.005.065 0 .022.004.043.005.065 0 .021-.005.043-.005.064 0 .022.004.043.005.065 0 .021-.005.043-.005.064 0 .022.004.043.005.065 0 .022-.005.043-.005.065 0 .021.004.042.005.064 0 .022-.005.043-.005.064 0 .022.004.043.005.065 0 .021-.005.043-.005.064 0 .022.004.043.005.065 0 .022-.005.043-.005.065 0 .744.511 1.458 1.423 1.984 1.898 1.096 4.976 1.096 6.874 0 .911-.526 1.423-1.24 1.424-1.984 0-.022-.004-.044-.005-.066 0-.021.005-.042.005-.063 0-.023-.004-.044-.005-.066 0-.021.005-.042.005-.063v-.001c0-.022-.004-.043-.005-.065 0-.02.005-.042.005-.063 0-.023-.004-.044-.005-.066 0-.021.005-.042.005-.063 0-.023-.004-.044-.005-.066 0-.021.005-.042.005-.064s-.004-.043-.005-.065c0-.021.005-.042.005-.064s-.004-.043-.005-.065c0-.021.005-.042.005-.063v-.001c0-.022-.004-.043-.005-.065 0-.021.005-.042.005-.064s-.004-.044-.005-.065c0-.022.005-.043.005-.064 0-.022-.004-.044-.005-.066 0-.02.005-.042.005-.063 0-.022-.004-.044-.005-.066 0-.021.005-.042.005-.063 0-.022-.004-.044-.005-.065 0-.022.005-.043.005-.064 0-.022-.004-.044-.005-.066 0-.02.005-.042.005-.063 0-.023-.004-.044-.005-.066 0-.021.005-.042.005-.063 0-.022-.004-.044-.005-.065 0-.022.005-.043.005-.065 0-.021-.004-.043-.005-.064 0-.022.005-.043.005-.065 0-.021-.004-.043-.005-.064 0-.022.005-.043.005-.064v-.001c0-.021-.004-.043-.005-.064 0-.022.005-.043.005-.065 0-.022-.004-.043-.005-.064 0-.022.005-.043.005-.065 0-.022-.004-.043-.005-.064 0-.022.005-.043.005-.065 0-.022-.004-.043-.005-.065 0-.021.005-.042.005-.064s-.004-.043-.005-.065c0-.021.005-.042.005-.064s-.004-.043-.005-.065c0-.021.005-.042.005-.064s-.004-.043-.005-.065c0-.021.005-.043.005-.064 0-.022-.004-.043-.005-.065 0-.022.005-.043.005-.064 0-.022-.004-.043-.005-.065 0-.022.005-.043.005-.064 0-.022-.004-.043-.005-.065 0-.021.005-.043.005-.064 0-.022-.004-.044-.005-.065 0-.022.005-.043.005-.065 0-.021-.004-.043-.005-.064 0-.022.005-.043.005-.065 0-.021-.004-.043-.005-.064 0-.022.005-.043.005-.064v-.001c0-.022-.004-.043-.005-.065 0-.021.005-.042.005-.064 0-.021-.004-.043-.005-.064 0-.022.005-.043.005-.065 0-.021-.004-.043-.005-.064 0-.022.005-.043.005-.065 0-.022-.004-.043-.005-.065 0-.021.005-.043.005-.064 0-.022-.004-.043-.005-.064 0-.022.005-.043.005-.065 0-.022-.004-.043-.005-.065 0-.021.005-.042.005-.064s-.004-.043-.005-.065c0-.021.005-.043.005-.064 0-.022-.004-.043-.005-.065 0-.021.005-.043.005-.064 0-.022-.004-.043-.005-.065 0-.022.005-.043.005-.064 0-.022-.004-.043-.005-.065 0-.021.005-.043.005-.064 0-.022-.004-.043-.005-.065 0-.022.005-.043.005-.065 0-.744-.512-1.458-1.424-1.984-.949-.548-2.193-.822-3.436-.822z" fill="#222937"/><path d="M168.455 102.99a4.86 2.806 0 01-6.874 0 4.86 2.806 0 010-3.97 4.86 2.806 0 016.874 0 4.86 2.806 0 010 3.97z" fill="#37425a"/><path d="M155.853 103.49c-1.243 0-2.487.274-3.436.822h-.001c-.911.526-1.423 1.24-1.424 1.984 0 .022.005.043.006.065 0 .021-.006.043-.006.064 0 .022.005.043.006.065 0 .021-.006.042-.006.064s.005.043.006.065c0 .021-.006.043-.006.064 0 .022.005.044.006.065 0 .022-.006.043-.006.064 0 .022.005.044.006.065 0 .022-.006.043-.006.064v.001c0 .022.005.043.006.064 0 .022-.006.043-.006.065 0 .021.005.043.006.064 0 .022-.006.043-.006.064 0 .022.005.044.006.065 0 .022-.006.043-.006.065 0 .022.005.043.006.064 0 .022-.006.043-.006.065 0 .022.005.043.006.064 0 .022-.006.043-.006.065 0 .022.005.043.006.065 0 .021-.006.042-.006.064s.005.043.006.065c0 .021-.006.042-.006.064s.005.043.006.065c0 .021-.006.043-.006.064 0 .022.005.043.006.065 0 .021-.006.043-.006.064 0 .022.005.043.006.065 0 .021-.006.043-.006.064 0 .022.005.043.006.065 0 .021-.006.043-.006.064 0 .022.005.044.006.065 0 .022-.006.043-.006.064 0 .022.005.043.006.065 0 .022-.006.043-.006.064v.001c0 .022.005.043.006.064 0 .022-.006.043-.006.065 0 .021.005.043.006.064 0 .022-.006.043-.006.065 0 .022.005.043.006.064 0 .022-.006.043-.006.065 0 .022.005.043.006.064 0 .022-.006.043-.006.065 0 .022.005.043.006.064 0 .022-.006.043-.006.065 0 .022.005.043.006.065 0 .021-.006.043-.006.064 0 .022.005.043.006.065 0 .021-.006.043-.006.064 0 .022.005.043.006.064 0 .022-.006.043-.006.065 0 .022.005.043.006.065 0 .021-.006.043-.006.064 0 .022.005.043.006.065 0 .021-.006.043-.006.064 0 .022.005.043.006.065 0 .022-.006.043-.006.065 0 .021.005.043.006.064 0 .022-.006.043-.006.064 0 .022.005.043.006.065 0 .021-.006.043-.006.064 0 .022.005.043.006.065 0 .022-.006.043-.006.065 0 .021.005.043.006.064 0 .022-.006.043-.006.065 0 .022.005.043.006.064 0 .022-.006.043-.006.065 0 .022.005.043.006.064 0 .022-.006.043-.006.065 0 .021.005.043.006.064 0 .022-.006.043-.006.065 0 .022.005.043.006.065 0 .021-.006.042-.006.064s.005.043.006.065c0 .021-.006.043-.006.064 0 .022.005.043.006.065 0 .021-.006.042-.006.064s.005.043.006.065c0 .021-.006.043-.006.064 0 .022.005.043.006.065 0 .021-.006.043-.006.064 0 .745.512 1.458 1.424 1.985 1.898 1.096 4.976 1.096 6.874 0 .91-.526 1.423-1.24 1.424-1.984 0-.023-.005-.044-.006-.066.001-.021.006-.042.006-.064s-.005-.043-.006-.065c.001-.021.006-.042.006-.064s-.005-.043-.006-.065c.001-.021.006-.042.006-.063 0-.023-.005-.044-.006-.066.001-.021.006-.042.006-.064s-.005-.043-.006-.065c.001-.022.006-.043.006-.064 0-.022-.005-.044-.006-.065.001-.022.006-.043.006-.064 0-.022-.005-.044-.006-.065.001-.021.006-.042.006-.064s-.005-.044-.006-.065c.001-.022.006-.043.006-.064 0-.022-.005-.044-.006-.066.001-.02.006-.042.006-.063 0-.022-.005-.044-.006-.066.001-.021.006-.042.006-.063 0-.023-.005-.044-.006-.066.001-.021.006-.042.006-.064 0-.021-.005-.043-.006-.065.001-.02.006-.042.006-.063 0-.023-.005-.044-.006-.066.001-.021.006-.042.006-.063 0-.023-.005-.044-.006-.066.001-.021.006-.042.006-.064s-.005-.043-.006-.064c.001-.022.006-.043.006-.065 0-.021-.005-.043-.006-.064.001-.022.006-.043.006-.065 0-.022-.005-.043-.006-.065.001-.021.006-.042.006-.064s-.005-.043-.006-.064c.001-.022.006-.043.006-.065 0-.022-.005-.043-.006-.064.001-.022.006-.043.006-.065 0-.022-.005-.043-.006-.065.001-.021.006-.043.006-.064 0-.022-.005-.043-.006-.065.001-.021.006-.042.006-.064s-.005-.043-.006-.065c.001-.022.006-.043.006-.064 0-.022-.005-.043-.006-.065.001-.021.006-.043.006-.064 0-.022-.005-.043-.006-.065.001-.022.006-.043.006-.065 0-.021-.005-.043-.006-.064.001-.022.006-.043.006-.065 0-.021-.005-.043-.006-.064.001-.022.006-.043.006-.064 0-.022-.005-.044-.006-.065.001-.022.006-.043.006-.065 0-.022-.005-.043-.006-.064.001-.022.006-.043.006-.065 0-.021-.005-.043-.006-.064.001-.022.006-.043.006-.065 0-.022-.005-.043-.006-.065.001-.021.006-.042.006-.064s-.005-.043-.006-.065c.001-.021.006-.042.006-.064s-.005-.043-.006-.064c.001-.022.006-.043.006-.065 0-.022-.005-.043-.006-.065.001-.021.006-.043.006-.064 0-.022-.005-.043-.006-.065.001-.021.006-.043.006-.064 0-.022-.005-.043-.006-.065.001-.021.006-.042.006-.064s-.005-.043-.006-.065c.001-.021.006-.043.006-.064 0-.022-.005-.043-.006-.065.001-.022.006-.043.006-.065 0-.021-.005-.043-.006-.064.001-.022.006-.043.006-.065 0-.021-.005-.043-.006-.064.001-.022.006-.043.006-.064 0-.022-.005-.043-.006-.065.001-.022.006-.043.006-.065 0-.021-.005-.043-.006-.064.001-.022.006-.043.006-.065 0-.744-.512-1.458-1.424-1.984-.95-.548-2.193-.822-3.437-.822z" fill="#222937"/><path d="M159.29 108.28a4.86 2.806 0 01-6.874 0 4.86 2.806 0 010-3.968 4.86 2.806 0 016.874 0 4.86 2.806 0 010 3.969z" fill="#37425a"/></g><path d="M151.26 90.267c-1.243 0-2.487.273-3.436.821h-.001c-.911.527-1.423 1.24-1.424 1.985 0 .022.005.043.006.064 0 .022-.006.043-.006.065 0 .022.005.043.006.064 0 .022-.006.043-.006.064v.001c0 .022.005.043.006.065 0 .021-.006.042-.006.064s.005.043.006.065c0 .021-.006.042-.006.064s.005.043.006.065c0 .021-.006.043-.006.064 0 .022.005.043.006.065 0 .021-.006.043-.006.064 0 .022.005.043.006.065 0 .021-.006.042-.006.064s.005.043.006.065c0 .021-.006.042-.006.064s.005.043.006.065c0 .021-.006.043-.006.064 0 .022.005.043.006.065 0 .022-.006.043-.006.065 0 .022.005.043.006.064 0 .022-.006.043-.006.065 0 .021.005.043.006.064 0 .022-.006.043-.006.064v.001c0 .022.005.043.006.065 0 .021-.006.042-.006.064s.005.043.006.064c0 .022-.006.043-.006.065 0 .022.005.043.006.064 0 .022-.006.043-.006.065 0 .022.005.043.006.065 0 .021-.006.042-.006.064s.005.043.006.065c0 .021-.006.042-.006.064s.005.043.006.065c0 .021-.006.042-.006.064s.005.043.006.065c0 .021-.006.043-.006.064 0 .022.005.043.006.065 0 .022-.006.043-.006.065 0 .021.005.043.006.064 0 .022-.006.043-.006.064 0 .022.005.043.006.065 0 .021-.006.043-.006.064v.001c0 .021.005.043.006.064 0 .022-.006.043-.006.065 0 .021.005.043.006.064 0 .022-.006.043-.006.065 0 .021.005.043.006.064 0 .022-.006.043-.006.065 0 .021.005.043.006.064 0 .022-.006.043-.006.065 0 .022.005.043.006.064 0 .022-.006.043-.006.065 0 .022.005.043.006.064 0 .022-.006.043-.006.065 0 .022.005.043.006.065 0 .021-.006.043-.006.064 0 .022.005.043.006.065 0 .021-.006.042-.006.064s.005.043.006.065c0 .021-.006.043-.006.064 0 .022.005.043.006.065 0 .021-.006.043-.006.064 0 .022.005.043.006.065 0 .022-.006.043-.006.065 0 .021.005.043.006.064 0 .022-.006.043-.006.065 0 .021.005.042.006.064 0 .021-.006.043-.006.064 0 .022.005.043.006.065 0 .022-.006.043-.006.065 0 .021.005.043.006.064 0 .022-.006.043-.006.065 0 .021.005.043.006.064 0 .022-.006.043-.006.065 0 .022.005.043.006.065 0 .021-.006.042-.006.064 0 .021.005.043.006.064 0 .022-.006.043-.006.065 0 .022.005.043.006.064 0 .022-.006.043-.006.065 0 .744.512 1.458 1.424 1.984 1.898 1.096 4.976 1.096 6.874 0 .91-.526 1.423-1.24 1.424-1.983v-.001c0-.022-.005-.043-.006-.065 0-.021.006-.042.006-.064s-.005-.044-.006-.065c0-.022.006-.043.006-.064 0-.022-.005-.043-.006-.065 0-.021.006-.042.006-.064s-.005-.044-.006-.065c0-.022.006-.043.006-.064 0-.022-.005-.044-.006-.066 0-.02.006-.042.006-.063 0-.022-.005-.044-.006-.066 0-.021.006-.042.006-.063 0-.023-.005-.044-.006-.065 0-.022.006-.043.006-.064 0-.022-.005-.044-.006-.066 0-.02.006-.042.006-.063 0-.023-.005-.044-.006-.066 0-.021.006-.042.006-.063 0-.023-.005-.044-.006-.066 0-.021.006-.042.006-.064s-.005-.043-.006-.065c0-.021.006-.042.006-.064s-.005-.043-.006-.065c0-.021.006-.042.006-.063v-.001c0-.022-.005-.043-.006-.065 0-.021.006-.042.006-.064s-.005-.043-.006-.065c0-.022.006-.043.006-.064 0-.022-.005-.043-.006-.064 0-.022.006-.043.006-.065 0-.022-.005-.043-.006-.065 0-.021.006-.043.006-.064 0-.022-.005-.043-.006-.065 0-.021.006-.042.006-.064s-.005-.043-.006-.065c0-.021.006-.042.006-.064s-.005-.043-.006-.065c0-.021.006-.043.006-.064 0-.022-.005-.043-.006-.065 0-.022.006-.043.006-.065 0-.021-.005-.043-.006-.064 0-.022.006-.043.006-.064 0-.022-.005-.044-.006-.065 0-.022.006-.043.006-.064 0-.022-.005-.044-.006-.065 0-.022.006-.043.006-.065 0-.021-.005-.043-.006-.064 0-.022.006-.043.006-.065 0-.021-.005-.043-.006-.064 0-.022.006-.043.006-.065 0-.022-.005-.043-.006-.065 0-.021.006-.042.006-.064s-.005-.043-.006-.064c0-.022.006-.043.006-.065 0-.022-.005-.043-.006-.064 0-.022.006-.043.006-.065 0-.022-.005-.043-.006-.065 0-.021.006-.043.006-.064 0-.022-.005-.043-.006-.065 0-.021.006-.042.006-.064s-.005-.043-.006-.065c0-.022.006-.043.006-.064 0-.022-.005-.043-.006-.065 0-.021.006-.043.006-.064 0-.022-.005-.043-.006-.065 0-.022.006-.043.006-.065 0-.021-.005-.043-.006-.064 0-.022.006-.043.006-.065 0-.021-.005-.042-.006-.064 0-.021.006-.043.006-.064v-.001c0-.021-.005-.043-.006-.064 0-.022.006-.043.006-.065 0-.021-.005-.043-.006-.064 0-.022.006-.043.006-.065 0-.021-.005-.043-.006-.064 0-.022.006-.043.006-.065 0-.022-.005-.043-.006-.065 0-.021.006-.042.006-.064 0-.021-.005-.043-.006-.064 0-.022.006-.043.006-.065 0-.022-.005-.043-.006-.064 0-.022.006-.043.006-.065 0-.744-.512-1.458-1.424-1.984-.95-.548-2.193-.823-3.437-.823z" fill="#222937" paint-order="stroke markers fill"/><path d="M154.697 95.057a4.86 2.806 0 01-6.874 0 4.86 2.806 0 010-3.968 4.86 2.806 0 016.874 0 4.86 2.806 0 010 3.968z" fill="#37425a" paint-order="stroke markers fill"/><g paint-order="stroke markers fill"><path d="M142.095 95.558c-1.244 0-2.487.274-3.436.822h-.001c-.911.527-1.423 1.24-1.424 1.984 0 .022.005.043.006.065-.001.022-.006.043-.006.065 0 .022.005.043.006.064-.001.022-.006.043-.006.064v.001c0 .022.005.043.006.064-.001.022-.006.043-.006.064v.001c0 .022.005.043.006.065-.001.021-.006.042-.006.064s.005.043.006.065c-.001.021-.006.042-.006.064s.005.043.006.064c-.001.022-.006.043-.006.065 0 .022.005.043.006.065-.001.021-.006.042-.006.064s.005.043.006.064c-.001.022-.006.043-.006.065 0 .022.005.043.006.065-.001.021-.006.042-.006.064s.005.043.006.065c-.001.021-.006.043-.006.064 0 .022.005.043.006.065-.001.022-.006.043-.006.065 0 .021.005.043.006.064-.001.022-.006.043-.006.064 0 .022.005.044.006.065-.001.022-.006.043-.006.064 0 .022.005.044.006.065-.001.022-.006.043-.006.065 0 .021.005.043.006.064-.001.022-.006.043-.006.065 0 .021.005.043.006.064-.001.022-.006.043-.006.064v.001c0 .022.005.043.006.065-.001.021-.006.042-.006.064s.005.043.006.064c-.001.022-.006.043-.006.065 0 .022.005.043.006.064-.001.022-.006.043-.006.065 0 .022.005.043.006.065-.001.021-.006.043-.006.064 0 .022.005.043.006.065-.001.021-.006.042-.006.064s.005.043.006.065c-.001.021-.006.042-.006.064s.005.043.006.065c-.001.021-.006.043-.006.064 0 .022.005.043.006.065-.001.022-.006.043-.006.065 0 .021.005.043.006.064-.001.022-.006.043-.006.065 0 .021.005.042.006.064-.001.021-.006.043-.006.064 0 .022.005.044.006.065-.001.022-.006.043-.006.065 0 .021.005.043.006.064-.001.022-.006.043-.006.065 0 .021.005.043.006.064-.001.022-.006.043-.006.065 0 .022.005.043.006.065-.001.021-.006.042-.006.064s.005.043.006.064c-.001.022-.006.043-.006.065 0 .022.005.043.006.064-.001.022-.006.043-.006.065 0 .022.005.043.006.065-.001.021-.006.043-.006.064 0 .022.005.043.006.065-.001.021-.006.043-.006.064 0 .022.005.043.006.065-.001.021-.006.042-.006.064s.005.043.006.065c-.001.021-.006.043-.006.064 0 .022.005.043.006.065-.001.022-.006.043-.006.064 0 .022.005.043.006.065-.001.022-.006.043-.006.065 0 .021.005.043.006.064-.001.022-.006.043-.006.064 0 .022.005.043.006.065-.001.022-.006.043-.006.065 0 .021.005.043.006.064-.001.022-.006.043-.006.065 0 .744.512 1.458 1.424 1.984 1.898 1.096 4.976 1.096 6.874 0 .91-.526 1.423-1.24 1.424-1.984 0-.022-.005-.044-.006-.066 0-.02.006-.042.006-.063 0-.023-.005-.044-.006-.066 0-.021.006-.042.006-.063 0-.023-.005-.044-.006-.065 0-.022.006-.043.006-.064 0-.022-.005-.044-.006-.066 0-.02.006-.042.006-.063 0-.023-.005-.044-.006-.066 0-.021.006-.042.006-.063v-.001c0-.022-.005-.043-.006-.065 0-.021.006-.042.006-.064s-.005-.043-.006-.065c0-.021.006-.042.006-.063 0-.023-.005-.044-.006-.066 0-.021.006-.042.006-.064s-.005-.043-.006-.065c0-.021.006-.042.006-.064s-.005-.044-.006-.065c0-.022.006-.043.006-.064 0-.022-.005-.044-.006-.066 0-.02.006-.042.006-.063 0-.022-.005-.043-.006-.065 0-.022.006-.042.006-.064s-.005-.044-.006-.065c0-.022.006-.043.006-.064 0-.022-.005-.044-.006-.066 0-.02.006-.042.006-.063 0-.022-.005-.043-.006-.065 0-.021.006-.043.006-.064 0-.022-.005-.043-.006-.065 0-.022.006-.043.006-.065 0-.021-.005-.043-.006-.064 0-.022.006-.043.006-.064 0-.022-.005-.043-.006-.065 0-.021.006-.043.006-.064v-.001c0-.022-.005-.043-.006-.064 0-.022.006-.043.006-.065 0-.021-.005-.043-.006-.064 0-.022.006-.043.006-.065 0-.022-.005-.043-.006-.064 0-.022.006-.043.006-.065 0-.022-.005-.043-.006-.065 0-.021.006-.042.006-.064s-.005-.043-.006-.064c0-.022.006-.043.006-.065 0-.022-.005-.043-.006-.065 0-.021.006-.043.006-.064 0-.022-.005-.043-.006-.065 0-.021.006-.043.006-.064 0-.022-.005-.043-.006-.065 0-.021.006-.042.006-.064s-.005-.043-.006-.065c0-.021.006-.043.006-.064 0-.022-.005-.043-.006-.065 0-.021.006-.043.006-.064 0-.022-.005-.043-.006-.065 0-.022.006-.043.006-.065 0-.021-.005-.043-.006-.064 0-.022.006-.043.006-.064 0-.022-.005-.044-.006-.065 0-.022.006-.043.006-.065 0-.021-.005-.042-.006-.064 0-.022.006-.043.006-.065 0-.021-.005-.043-.006-.064 0-.022.006-.043.006-.065 0-.022-.005-.043-.006-.064 0-.022.006-.043.006-.065 0-.022-.005-.043-.006-.064 0-.022.006-.043.006-.065 0-.022-.005-.043-.006-.064 0-.022.006-.043.006-.065 0-.022-.005-.043-.006-.065 0-.021.006-.042.006-.064s-.005-.043-.006-.065c0-.021.006-.043.006-.064 0-.022-.005-.043-.006-.065 0-.021.006-.042.006-.064s-.005-.043-.006-.065c0-.021.006-.042.006-.064s-.005-.043-.006-.065c0-.021.006-.043.006-.064 0-.745-.512-1.458-1.424-1.985-.95-.548-2.193-.822-3.437-.822z" fill="#222937"/><path d="M145.532 100.35a4.86 2.806 0 01-6.874 0 4.86 2.806 0 010-3.97 4.86 2.806 0 016.874 0 4.86 2.806 0 010 3.97z" fill="#37425a"/></g><g paint-order="stroke markers fill"><path d="M128.337 87.627c-1.244 0-2.488.274-3.437.821-.912.527-1.424 1.24-1.425 1.985 0 .022.005.043.006.064 0 .022-.005.043-.006.065 0 .022.005.043.006.065 0 .021-.006.042-.006.064s.005.043.006.065c0 .021-.006.042-.006.064s.005.043.006.065c0 .021-.006.043-.006.064 0 .022.005.044.006.065 0 .022-.006.043-.006.064 0 .022.005.043.006.065 0 .021-.006.043-.006.064 0 .022.005.043.006.065 0 .021-.006.043-.006.064 0 .022.005.043.006.065 0 .021-.006.043-.006.064 0 .022.005.043.006.065 0 .021-.006.043-.006.064v.001c0 .022.005.043.006.064 0 .022-.006.043-.006.065 0 .022.005.043.006.064 0 .022-.006.043-.006.065 0 .022.005.043.006.064 0 .022-.006.043-.006.065 0 .022.005.043.006.065 0 .021-.006.042-.006.064s.005.043.006.064c0 .022-.006.043-.006.065 0 .022.005.043.006.065 0 .021-.006.043-.006.064 0 .022.005.043.006.065 0 .021-.006.042-.006.064s.005.043.006.065c0 .021-.006.043-.006.064 0 .022.005.043.006.065 0 .021-.006.043-.006.064 0 .022.005.043.006.065 0 .021-.006.043-.006.064 0 .022.005.043.006.065 0 .022-.006.043-.006.065 0 .021.005.043.006.064 0 .022-.006.043-.006.064 0 .022.005.043.006.065 0 .022-.006.043-.006.065 0 .022.005.043.006.064 0 .022-.006.043-.006.065 0 .021.005.043.006.064 0 .022-.006.043-.006.065 0 .022.005.043.006.065 0 .021-.006.042-.006.064s.005.043.006.064c0 .022-.006.043-.006.065 0 .022.005.043.006.064 0 .022-.006.043-.006.065 0 .022.005.043.006.065 0 .021-.006.043-.006.064 0 .022.005.043.006.065 0 .021-.006.043-.006.064 0 .022.005.043.006.065 0 .021-.006.043-.006.064 0 .022.005.043.006.065 0 .021-.006.043-.006.064 0 .022.005.043.006.065 0 .021-.006.043-.006.064 0 .022.005.043.006.065 0 .022-.006.043-.006.065 0 .021.005.043.006.064 0 .022-.006.043-.006.065 0 .021.005.042.006.064 0 .022-.006.043-.006.064 0 .022.005.043.006.065 0 .022-.006.043-.006.065 0 .021.005.043.006.064 0 .022-.006.043-.006.065 0 .022.005.043.006.064 0 .022-.006.043-.006.065 0 .022.005.043.006.065 0 .021-.006.042-.006.064 0 .021.005.043.006.064 0 .022-.006.043-.006.065 0 .022.005.043.006.065 0 .021-.006.042-.006.064 0 .744.512 1.458 1.424 1.984 1.898 1.096 4.976 1.096 6.874 0 .911-.526 1.423-1.24 1.424-1.983v-.001c0-.022-.004-.043-.005-.065 0-.021.005-.042.005-.064s-.004-.044-.005-.065c0-.022.005-.043.005-.064 0-.022-.004-.043-.005-.065 0-.021.005-.042.005-.064s-.004-.044-.005-.065c0-.022.005-.043.005-.064 0-.022-.004-.044-.005-.065 0-.022.005-.043.005-.064 0-.022-.004-.044-.005-.066 0-.021.005-.042.005-.063 0-.022-.004-.044-.005-.065 0-.022.005-.043.005-.064 0-.022-.004-.044-.005-.066 0-.02.005-.042.005-.063 0-.023-.004-.044-.005-.066 0-.021.005-.042.005-.063 0-.023-.004-.044-.005-.066 0-.021.005-.042.005-.064s-.004-.043-.005-.065c0-.021.005-.042.005-.064s-.004-.043-.005-.065c0-.021.005-.042.005-.063v-.001c0-.022-.004-.043-.005-.065 0-.021.005-.042.005-.064s-.004-.043-.005-.065c0-.022.005-.043.005-.064 0-.022-.004-.043-.005-.064 0-.022.005-.043.005-.065 0-.022-.004-.043-.005-.065 0-.021.005-.043.005-.064 0-.022-.004-.043-.005-.065 0-.021.005-.042.005-.064s-.004-.043-.005-.065c0-.021.005-.042.005-.064s-.004-.043-.005-.065c0-.021.005-.043.005-.064 0-.022-.004-.043-.005-.065 0-.022.005-.043.005-.065 0-.021-.004-.043-.005-.064 0-.022.005-.043.005-.064 0-.022-.004-.044-.005-.065 0-.022.005-.043.005-.064 0-.022-.004-.044-.005-.065 0-.022.005-.043.005-.065 0-.021-.004-.043-.005-.064 0-.022.005-.043.005-.065 0-.021-.004-.043-.005-.064 0-.022.005-.043.005-.065 0-.022-.004-.043-.005-.065 0-.021.005-.042.005-.064s-.004-.043-.005-.064c0-.022.005-.043.005-.065 0-.022-.004-.043-.005-.064 0-.022.005-.043.005-.065 0-.022-.004-.043-.005-.065 0-.021.005-.043.005-.064 0-.022-.004-.043-.005-.065 0-.021.005-.042.005-.064s-.004-.043-.005-.065c0-.022.005-.043.005-.064 0-.022-.004-.043-.005-.065 0-.021.005-.043.005-.064 0-.022-.004-.043-.005-.065 0-.022.005-.043.005-.065 0-.021-.004-.042-.005-.064 0-.022.005-.043.005-.065 0-.021-.004-.042-.005-.064 0-.021.005-.043.005-.064 0-.022-.004-.044-.005-.065 0-.022.005-.043.005-.065 0-.021-.004-.043-.005-.064 0-.022.005-.043.005-.065 0-.021-.004-.043-.005-.064 0-.022.005-.043.005-.065 0-.022-.004-.043-.005-.065 0-.021.005-.042.005-.064 0-.021-.004-.043-.005-.064 0-.022.005-.043.005-.065 0-.021-.004-.043-.005-.064 0-.022.005-.043.005-.065 0-.744-.512-1.458-1.424-1.984-.949-.548-2.193-.822-3.436-.823z" fill="#222937"/><path d="M131.773 92.418a4.86 2.806 0 01-6.874 0 4.86 2.806 0 010-3.97 4.86 2.806 0 016.874 0 4.86 2.806 0 010 3.97z" fill="#37425a"/></g><g paint-order="stroke markers fill"><path d="M192.196 113.936c-1.244 0-2.487.274-3.436.822h-.001c-.911.527-1.423 1.24-1.424 1.984 0 .022.005.043.006.065-.001.021-.006.043-.006.064 0 .022.005.044.006.065-.001.021-.006.043-.006.064v.001c0 .022.005.043.006.064-.001.022-.006.043-.006.064 0 .022.005.044.006.065-.001.022-.006.043-.006.064v.001c0 .022.005.043.006.065-.001.021-.006.042-.006.064s.005.043.006.064c-.001.022-.006.043-.006.065 0 .022.005.043.006.064-.001.022-.006.043-.006.065 0 .022.005.043.006.064-.001.022-.006.043-.006.065 0 .022.005.043.006.064-.001.022-.006.043-.006.065 0 .022.005.043.006.065-.001.021-.006.042-.006.064s.005.043.006.065c-.001.021-.006.043-.006.064 0 .022.005.043.006.065-.001.021-.006.042-.006.064s.005.044.006.065c-.001.022-.006.043-.006.064 0 .022.005.043.006.065-.001.021-.006.043-.006.064 0 .022.005.043.006.065-.001.022-.006.043-.006.065 0 .021.005.043.006.064-.001.022-.006.043-.006.064 0 .022.005.044.006.065-.001.022-.006.043-.006.064v.001c0 .022.005.043.006.064-.001.022-.006.043-.006.065 0 .022.005.043.006.064-.001.022-.006.043-.006.065 0 .022.005.043.006.064-.001.022-.006.043-.006.065 0 .022.005.043.006.065-.001.021-.006.042-.006.064s.005.043.006.064c-.001.022-.006.043-.006.065 0 .022.005.043.006.065-.001.021-.006.043-.006.064 0 .022.005.043.006.065-.001.021-.006.043-.006.064 0 .022.005.043.006.065-.001.022-.006.043-.006.065 0 .021.005.042.006.064-.001.021-.006.043-.006.064 0 .022.005.043.006.065-.001.021-.006.043-.006.064 0 .022.005.043.006.065-.001.022-.006.043-.006.065 0 .021.005.043.006.064-.001.022-.006.043-.006.065 0 .021.005.043.006.064-.001.022-.006.043-.006.064v.001c0 .022.005.043.006.064-.001.022-.006.043-.006.065 0 .021.005.043.006.064-.001.022-.006.043-.006.065 0 .022.005.043.006.064-.001.022-.006.043-.006.065 0 .022.005.043.006.065-.001.021-.006.043-.006.064 0 .022.005.043.006.064-.001.022-.006.043-.006.065 0 .022.005.043.006.065-.001.021-.006.042-.006.064s.005.043.006.065c-.001.021-.006.043-.006.064 0 .022.005.043.006.065-.001.022-.006.043-.006.065 0 .021.005.042.006.064-.001.022-.006.043-.006.064 0 .022.005.043.006.065-.001.021-.006.043-.006.064 0 .022.005.043.006.065-.001.022-.006.043-.006.065 0 .744.512 1.458 1.424 1.984 1.898 1.096 4.976 1.096 6.874 0 .91-.526 1.423-1.24 1.424-1.984 0-.022-.005-.044-.006-.066 0-.021.006-.042.006-.063 0-.023-.005-.044-.006-.066 0-.021.006-.042.006-.064s-.005-.043-.006-.065c0-.02.006-.042.006-.063 0-.023-.005-.044-.006-.066 0-.021.006-.042.006-.063 0-.023-.005-.044-.006-.066 0-.021.006-.042.006-.064s-.005-.043-.006-.065c0-.022.006-.043.006-.064 0-.022-.005-.043-.006-.065 0-.021.006-.042.006-.063v-.001c0-.022-.005-.043-.006-.065 0-.021.006-.042.006-.064s-.005-.044-.006-.065c0-.022.006-.043.006-.064 0-.022-.005-.044-.006-.066 0-.02.006-.042.006-.063 0-.023-.005-.044-.006-.066 0-.021.006-.042.006-.063 0-.022-.005-.044-.006-.065 0-.022.006-.043.006-.064 0-.022-.005-.044-.006-.066 0-.02.006-.042.006-.063 0-.023-.005-.044-.006-.066 0-.021.006-.042.006-.063 0-.022-.005-.044-.006-.065 0-.022.006-.043.006-.065 0-.021-.005-.043-.006-.064 0-.022.006-.043.006-.065 0-.021-.005-.043-.006-.064 0-.022.006-.043.006-.064v-.001c0-.021-.005-.043-.006-.064 0-.022.006-.043.006-.065 0-.022-.005-.043-.006-.064 0-.022.006-.043.006-.065 0-.022-.005-.043-.006-.064 0-.022.006-.043.006-.065 0-.022-.005-.043-.006-.065 0-.021.006-.042.006-.064s-.005-.043-.006-.065c0-.021.006-.042.006-.064s-.005-.043-.006-.065c0-.021.006-.042.006-.064s-.005-.043-.006-.065c0-.021.006-.043.006-.064 0-.022-.005-.043-.006-.065 0-.022.006-.043.006-.065 0-.021-.005-.043-.006-.064 0-.022.006-.043.006-.064 0-.022-.005-.043-.006-.065 0-.021.006-.043.006-.064 0-.022-.005-.044-.006-.065 0-.022.006-.043.006-.065 0-.021-.005-.043-.006-.064 0-.022.006-.043.006-.065 0-.021-.005-.043-.006-.064 0-.022.006-.043.006-.064v-.001c0-.022-.005-.043-.006-.065 0-.021.006-.042.006-.064 0-.021-.005-.043-.006-.064 0-.022.006-.043.006-.065 0-.022-.005-.043-.006-.064 0-.022.006-.043.006-.065 0-.022-.005-.043-.006-.065 0-.021.006-.043.006-.064 0-.022-.005-.043-.006-.064 0-.022.006-.043.006-.065 0-.022-.005-.043-.006-.065 0-.021.006-.042.006-.064s-.005-.043-.006-.065c0-.021.006-.043.006-.064 0-.022-.005-.043-.006-.065 0-.022.006-.043.006-.065 0-.021-.005-.042-.006-.064 0-.022.006-.043.006-.064 0-.022-.005-.043-.006-.065 0-.021.006-.043.006-.064 0-.022-.005-.043-.006-.065 0-.022.006-.043.006-.065 0-.744-.512-1.458-1.424-1.984-.95-.548-2.193-.822-3.437-.822z" fill="#222937"/><path d="M195.633 118.727a4.86 2.806 0 01-6.874 0 4.86 2.806 0 010-3.969 4.86 2.806 0 016.874 0 4.86 2.806 0 010 3.97z" fill="#37425a"/></g><g paint-order="stroke markers fill"><path d="M197.335 127.165c-1.243 0-2.487.274-3.436.822h-.001c-.911.527-1.423 1.24-1.424 1.984 0 .022.005.043.006.065-.001.022-.006.043-.006.065 0 .022.005.043.006.064-.001.022-.006.043-.006.064v.001c0 .022.005.043.006.064-.001.022-.006.043-.006.064 0 .023.005.044.006.066-.001.021-.006.042-.006.064s.005.043.006.065c-.001.021-.006.042-.006.064s.005.043.006.064c-.001.022-.006.043-.006.065 0 .022.005.043.006.065-.001.021-.006.042-.006.064s.005.043.006.064c-.001.022-.006.043-.006.065 0 .022.005.043.006.065-.001.021-.006.042-.006.064s.005.043.006.065c-.001.021-.006.043-.006.064 0 .022.005.043.006.065-.001.022-.006.043-.006.065 0 .021.005.043.006.064-.001.022-.006.043-.006.064 0 .022.005.044.006.065-.001.022-.006.043-.006.064 0 .022.005.044.006.065-.001.022-.006.043-.006.065 0 .021.005.043.006.064-.001.022-.006.043-.006.065 0 .021.005.043.006.064-.001.022-.006.043-.006.064v.001c0 .022.005.043.006.065-.001.021-.006.042-.006.064s.005.043.006.064c-.001.022-.006.043-.006.065 0 .022.005.043.006.064-.001.022-.006.043-.006.065 0 .022.005.043.006.065-.001.021-.006.043-.006.064 0 .022.005.043.006.065-.001.021-.006.042-.006.064s.005.043.006.065c-.001.021-.006.042-.006.064s.005.043.006.065c-.001.021-.006.043-.006.064 0 .022.005.043.006.065-.001.022-.006.043-.006.065 0 .021.005.043.006.064-.001.022-.006.043-.006.065 0 .021.005.042.006.064-.001.021-.006.043-.006.064 0 .022.005.044.006.065-.001.022-.006.043-.006.065 0 .021.005.043.006.064-.001.022-.006.043-.006.065 0 .021.005.043.006.064-.001.022-.006.043-.006.065 0 .022.005.043.006.065-.001.021-.006.042-.006.064s.005.043.006.064c-.001.022-.006.043-.006.065 0 .022.005.043.006.064-.001.022-.006.043-.006.065 0 .022.005.043.006.065-.001.021-.006.043-.006.064 0 .022.005.043.006.065-.001.021-.006.043-.006.064 0 .022.005.043.006.065-.001.021-.006.042-.006.064s.005.043.006.065c-.001.021-.006.043-.006.064 0 .022.005.043.006.065-.001.022-.006.043-.006.064 0 .022.005.043.006.065-.001.022-.006.043-.006.065 0 .021.005.043.006.064-.001.022-.006.043-.006.064 0 .022.005.043.006.065-.001.022-.006.043-.006.065 0 .021.005.043.006.064-.001.022-.006.043-.006.065 0 .744.512 1.458 1.424 1.984 1.898 1.096 4.976 1.096 6.874 0 .91-.526 1.423-1.24 1.424-1.984 0-.022-.005-.044-.006-.066.001-.02.006-.042.006-.063 0-.023-.005-.044-.006-.066.001-.021.006-.042.006-.063 0-.023-.005-.044-.006-.065.001-.022.006-.043.006-.064 0-.022-.005-.044-.006-.066.001-.02.006-.042.006-.063 0-.023-.005-.044-.006-.066.001-.021.006-.042.006-.063v-.001c0-.022-.005-.043-.006-.065.001-.021.006-.042.006-.064s-.005-.043-.006-.065c.001-.021.006-.042.006-.063 0-.023-.005-.044-.006-.066.001-.021.006-.042.006-.064s-.005-.043-.006-.065c.001-.021.006-.042.006-.064s-.005-.044-.006-.065c.001-.022.006-.043.006-.064 0-.022-.005-.044-.006-.066.001-.02.006-.042.006-.063 0-.022-.005-.043-.006-.065.001-.022.006-.042.006-.064s-.005-.044-.006-.065c.001-.022.006-.043.006-.064 0-.022-.005-.044-.006-.066.001-.02.006-.042.006-.063 0-.022-.005-.043-.006-.065.001-.021.006-.043.006-.064 0-.022-.005-.043-.006-.065.001-.022.006-.043.006-.065 0-.021-.005-.043-.006-.064.001-.022.006-.043.006-.064 0-.022-.005-.043-.006-.065.001-.022.006-.043.006-.064v-.001c0-.022-.005-.043-.006-.064.001-.022.006-.043.006-.065 0-.021-.005-.043-.006-.064.001-.022.006-.043.006-.065 0-.022-.005-.043-.006-.064.001-.022.006-.043.006-.065 0-.022-.005-.043-.006-.065.001-.021.006-.042.006-.064s-.005-.043-.006-.064c.001-.022.006-.043.006-.065 0-.022-.005-.043-.006-.065.001-.021.006-.043.006-.064 0-.022-.005-.043-.006-.065.001-.021.006-.043.006-.064 0-.022-.005-.043-.006-.065.001-.021.006-.043.006-.064 0-.022-.005-.043-.006-.065.001-.021.006-.043.006-.064 0-.022-.005-.043-.006-.065.001-.021.006-.043.006-.064 0-.022-.005-.043-.006-.065.001-.022.006-.043.006-.065 0-.021-.005-.043-.006-.064.001-.022.006-.043.006-.064 0-.022-.005-.044-.006-.065.001-.022.006-.043.006-.065 0-.021-.005-.042-.006-.064.001-.022.006-.043.006-.065 0-.021-.005-.043-.006-.064.001-.022.006-.043.006-.065 0-.022-.005-.043-.006-.064.001-.022.006-.043.006-.065 0-.022-.005-.043-.006-.064.001-.022.006-.043.006-.065 0-.022-.005-.043-.006-.064.001-.022.006-.043.006-.065 0-.022-.005-.043-.006-.065.001-.021.006-.042.006-.064s-.005-.043-.006-.065c.001-.021.006-.043.006-.064 0-.022-.005-.043-.006-.065.001-.021.006-.042.006-.064s-.005-.043-.006-.065c.001-.021.006-.043.006-.064 0-.022-.005-.043-.006-.065.001-.021.006-.043.006-.064 0-.745-.512-1.458-1.424-1.985-.95-.548-2.193-.822-3.437-.822z" fill="#222937"/><path d="M200.772 131.956a4.86 2.806 0 01-6.874 0 4.86 2.806 0 010-3.969 4.86 2.806 0 016.874 0 4.86 2.806 0 010 3.97z" fill="#37425a"/></g><path fill="#bba090" paint-order="stroke markers fill" d="M178.726 138.6l18.331 10.583-4.583 2.646-18.331-10.583z"/><path d="M174.143 141.245v2.117l18.331 10.583 4.583-2.646v-2.116l-4.583 2.645-18.33-10.583" fill="#8d8e8f"/><path d="M178.726 209.508v21.166l9.165 5.292 105.403-60.854v-21.167L187.89 214.799l-9.165-5.291" fill="#70694d"/></svg>